<?xml version="1.0" encoding="utf-8"?>
<!-- Generator: Adobe Illustrator 16.0.0, SVG Export Plug-In . SVG Version: 6.00 Build 0)  -->
<!DOCTYPE svg PUBLIC "-//W3C//DTD SVG 1.1//EN" "http://www.w3.org/Graphics/SVG/1.1/DTD/svg11.dtd">
<svg version="1.1" id="Layer_1" xmlns="http://www.w3.org/2000/svg" xmlns:xlink="http://www.w3.org/1999/xlink" x="0px" y="0px"
	 width="201.701px" height="132.014px" viewBox="0 0 201.701 132.014" enable-background="new 0 0 201.701 132.014"
	 xml:space="preserve">
<g>
	<g>
		<path fill="#00447C" d="M175.94,111.408c0.418,0,0.736-0.04,0.952-0.122c0.216-0.079,0.359-0.216,0.435-0.409
			c0.073-0.192,0.111-0.479,0.111-0.867v-0.122c-0.12,0.021-0.369,0.055-0.752,0.102c-0.38,0.047-0.633,0.067-0.766,0.067
			c-0.834,0-1.528-0.156-2.087-0.469c-0.56-0.312-0.979-0.767-1.255-1.361c-0.274-0.591-0.415-1.301-0.415-2.122v-1.206
			c0-0.817,0.141-1.526,0.415-2.12c0.277-0.596,0.695-1.049,1.255-1.361c0.559-0.312,1.257-0.469,2.087-0.469
			c0.284,0,0.561,0.008,0.828,0.023c0.271,0.02,0.512,0.044,0.723,0.071c0.215,0.024,0.499,0.074,0.852,0.142
			c0.35,0.068,0.607,0.123,0.768,0.167c0.168,0.044,0.279,0.094,0.338,0.153c0.057,0.058,0.084,0.147,0.084,0.27v8.121
			c0,0.737-0.128,1.341-0.389,1.813c-0.262,0.471-0.653,0.814-1.182,1.035c-0.534,0.222-1.199,0.331-2.004,0.331
			c-0.533,0-1.062-0.065-1.584-0.196c-0.523-0.135-0.958-0.276-1.308-0.436c-0.065-0.035-0.129-0.071-0.186-0.111
			c-0.057-0.035-0.094-0.08-0.114-0.123c-0.021-0.049-0.028-0.105-0.028-0.177v-0.801c0-0.229,0.11-0.315,0.33-0.251
			c0.422,0.103,0.898,0.199,1.434,0.289C175.021,111.365,175.506,111.408,175.94,111.408L175.94,111.408L175.94,111.408z
			 M177.438,108.235v-5.448c-0.197-0.039-0.42-0.075-0.674-0.102c-0.252-0.024-0.533-0.037-0.842-0.037
			c-0.636,0-1.072,0.193-1.314,0.592c-0.246,0.396-0.365,0.945-0.365,1.659v1.206c0,0.324,0.027,0.625,0.078,0.9
			c0.051,0.279,0.139,0.519,0.27,0.725c0.129,0.204,0.305,0.359,0.521,0.466c0.221,0.106,0.491,0.164,0.812,0.164
			c0.188,0,0.429-0.013,0.73-0.039C176.958,108.294,177.218,108.266,177.438,108.235L177.438,108.235z"/>
		<path fill="#00447C" d="M26.332,110.057c-0.513,0-1.019-0.071-1.522-0.221c-0.501-0.148-0.967-0.404-1.397-0.769
			c-0.43-0.358-0.775-0.854-1.038-1.484c-0.258-0.633-0.39-1.408-0.39-2.336v-2.313c0-1.254,0.212-2.235,0.642-2.949
			c0.427-0.712,0.961-1.2,1.603-1.472c0.639-0.266,1.34-0.396,2.104-0.396c0.396,0,0.777,0.038,1.139,0.117
			c0.366,0.081,0.685,0.172,0.949,0.273c0.269,0.101,0.434,0.177,0.501,0.222c0.229,0.127,0.346,0.271,0.346,0.422v1.064
			c0,0.256-0.133,0.336-0.395,0.24c-0.177-0.068-0.415-0.14-0.709-0.214c-0.293-0.082-0.584-0.142-0.87-0.188
			c-0.289-0.043-0.562-0.069-0.823-0.069c-0.522,0-0.95,0.094-1.284,0.274c-0.333,0.189-0.581,0.494-0.749,0.924
			c-0.166,0.432-0.25,1.013-0.25,1.744v2.312c0,0.711,0.083,1.284,0.25,1.719c0.169,0.433,0.415,0.745,0.751,0.938
			c0.336,0.19,0.765,0.289,1.281,0.289c0.402,0,0.826-0.049,1.262-0.146c0.435-0.099,0.815-0.21,1.142-0.331
			c0.263-0.099,0.395-0.018,0.395,0.236v1.073c0,0.154-0.115,0.296-0.346,0.433c-0.216,0.12-0.564,0.253-1.047,0.396
			C27.397,109.987,26.88,110.057,26.332,110.057L26.332,110.057L26.332,110.057z M38.048,106.138c0,0.746-0.145,1.422-0.435,2.021
			c-0.289,0.599-0.713,1.064-1.276,1.397c-0.565,0.331-1.25,0.5-2.051,0.5c-0.794,0-1.479-0.169-2.047-0.5
			c-0.566-0.333-0.997-0.798-1.282-1.397c-0.285-0.602-0.431-1.275-0.431-2.021v-1.27c0-0.748,0.146-1.42,0.431-2.021
			c0.286-0.602,0.716-1.062,1.282-1.396c0.569-0.333,1.251-0.5,2.047-0.5c0.802,0,1.486,0.167,2.051,0.5
			c0.562,0.334,0.987,0.797,1.276,1.396c0.292,0.604,0.435,1.275,0.435,2.021V106.138L38.048,106.138z M35.971,106.138v-1.27
			c0-0.656-0.144-1.176-0.434-1.556c-0.289-0.382-0.707-0.573-1.251-0.573c-0.544,0-0.959,0.191-1.249,0.573
			c-0.289,0.38-0.434,0.898-0.434,1.556v1.27c0,0.656,0.146,1.172,0.438,1.555c0.293,0.381,0.706,0.572,1.245,0.572
			c0.541,0,0.957-0.191,1.248-0.572C35.824,107.31,35.971,106.794,35.971,106.138L35.971,106.138z M41.716,109.602
			c0,0.086-0.03,0.166-0.086,0.231c-0.057,0.062-0.127,0.099-0.215,0.099h-1.462c-0.091,0-0.167-0.033-0.224-0.104
			c-0.062-0.068-0.091-0.146-0.091-0.227V98.273c0-0.074,0.033-0.147,0.092-0.215c0.062-0.064,0.137-0.1,0.223-0.1h1.462
			c0.083,0,0.154,0.03,0.211,0.097c0.061,0.062,0.09,0.138,0.09,0.218V109.602L41.716,109.602L41.716,109.602z M45.679,109.602
			c0,0.086-0.028,0.166-0.083,0.231c-0.058,0.062-0.128,0.099-0.216,0.099h-1.462c-0.091,0-0.167-0.033-0.225-0.104
			c-0.06-0.068-0.088-0.146-0.088-0.227V98.273c0-0.074,0.031-0.147,0.092-0.215c0.061-0.064,0.137-0.1,0.223-0.1h1.463
			c0.082,0,0.151,0.03,0.21,0.097c0.06,0.062,0.088,0.138,0.088,0.218v11.329H45.679z M52.696,104.74v-0.06
			c0-0.638-0.148-1.117-0.445-1.445c-0.296-0.325-0.699-0.492-1.211-0.492c-0.324,0-0.616,0.07-0.867,0.214
			c-0.255,0.139-0.455,0.355-0.595,0.641c-0.146,0.287-0.215,0.648-0.215,1.086v0.06h3.334L52.696,104.74L52.696,104.74z
			 M51.279,110.057c-0.661,0-1.293-0.119-1.896-0.364c-0.605-0.239-1.109-0.657-1.51-1.25c-0.401-0.588-0.603-1.364-0.603-2.337
			v-1.16c0-0.804,0.146-1.511,0.44-2.12c0.297-0.609,0.728-1.075,1.297-1.396c0.569-0.317,1.248-0.479,2.034-0.479
			c0.791,0,1.468,0.167,2.033,0.506c0.566,0.338,0.995,0.809,1.283,1.406c0.292,0.599,0.436,1.294,0.436,2.083v0.875
			c0,0.267-0.105,0.401-0.316,0.401h-5.129v0.047c0,0.594,0.15,1.075,0.445,1.443c0.297,0.369,0.846,0.554,1.648,0.554
			c0.441,0,0.918-0.044,1.43-0.136c0.512-0.087,0.931-0.185,1.258-0.289c0.221-0.066,0.332,0.019,0.332,0.249v0.931
			c0,0.104-0.027,0.184-0.083,0.239c-0.056,0.057-0.135,0.113-0.249,0.168c-0.323,0.17-0.741,0.316-1.26,0.443
			C52.351,109.993,51.821,110.057,51.279,110.057L51.279,110.057L51.279,110.057z M59.824,111.411c0.419,0,0.737-0.043,0.952-0.122
			c0.215-0.081,0.358-0.219,0.434-0.41c0.076-0.191,0.111-0.479,0.111-0.869v-0.122c-0.117,0.021-0.366,0.058-0.749,0.103
			c-0.382,0.046-0.634,0.069-0.765,0.069c-0.836,0-1.53-0.159-2.088-0.47c-0.559-0.312-0.977-0.768-1.254-1.36
			c-0.276-0.594-0.414-1.303-0.414-2.124v-1.204c0-0.82,0.138-1.527,0.414-2.12c0.277-0.597,0.695-1.05,1.254-1.36
			c0.559-0.312,1.255-0.471,2.088-0.471c0.283,0,0.558,0.008,0.827,0.023c0.271,0.02,0.509,0.045,0.723,0.07
			c0.213,0.026,0.496,0.076,0.849,0.144c0.353,0.065,0.608,0.122,0.77,0.167c0.168,0.041,0.28,0.094,0.337,0.15
			c0.056,0.058,0.084,0.148,0.084,0.271v8.119c0,0.737-0.129,1.344-0.389,1.815c-0.259,0.469-0.654,0.814-1.181,1.033
			c-0.532,0.222-1.199,0.334-2.005,0.334c-0.533,0-1.062-0.068-1.582-0.197c-0.523-0.134-0.958-0.274-1.31-0.434
			c-0.064-0.036-0.126-0.072-0.184-0.111c-0.057-0.037-0.095-0.081-0.116-0.124c-0.021-0.05-0.031-0.106-0.031-0.179v-0.802
			c0-0.229,0.11-0.312,0.331-0.25c0.423,0.102,0.9,0.198,1.436,0.289C58.904,111.365,59.388,111.411,59.824,111.411L59.824,111.411
			L59.824,111.411z M61.32,108.238v-5.448c-0.194-0.042-0.418-0.077-0.67-0.102c-0.253-0.026-0.534-0.039-0.843-0.039
			c-0.634,0-1.073,0.195-1.315,0.591c-0.245,0.396-0.365,0.948-0.365,1.662v1.204c0,0.324,0.026,0.626,0.076,0.899
			c0.052,0.279,0.141,0.519,0.27,0.725c0.13,0.205,0.303,0.36,0.523,0.469c0.221,0.106,0.49,0.161,0.811,0.161
			c0.189,0,0.427-0.011,0.729-0.038C60.841,108.294,61.1,108.266,61.32,108.238L61.32,108.238L61.32,108.238z M70.352,104.74v-0.06
			c0-0.638-0.149-1.117-0.445-1.445c-0.295-0.328-0.7-0.492-1.212-0.492c-0.326,0-0.616,0.07-0.867,0.214
			c-0.255,0.139-0.456,0.355-0.595,0.641c-0.146,0.287-0.215,0.648-0.215,1.086v0.06h3.336v-0.003H70.352z M68.933,110.057
			c-0.66,0-1.292-0.119-1.896-0.364c-0.607-0.239-1.109-0.657-1.509-1.25c-0.401-0.588-0.603-1.364-0.603-2.337v-1.16
			c0-0.804,0.146-1.511,0.44-2.12c0.298-0.609,0.727-1.075,1.295-1.396c0.568-0.317,1.248-0.479,2.034-0.479
			c0.789,0,1.467,0.167,2.034,0.506c0.565,0.338,0.995,0.809,1.281,1.406c0.291,0.599,0.435,1.294,0.435,2.083v0.875
			c0,0.267-0.104,0.401-0.314,0.401H67v0.047c0,0.594,0.15,1.075,0.445,1.443c0.296,0.369,0.847,0.554,1.65,0.554
			c0.439,0,0.918-0.044,1.43-0.136c0.51-0.087,0.931-0.185,1.259-0.289c0.22-0.066,0.331,0.019,0.331,0.249v0.931
			c0,0.104-0.027,0.184-0.083,0.239c-0.056,0.057-0.137,0.113-0.249,0.168c-0.323,0.17-0.744,0.316-1.263,0.443
			C70.007,109.993,69.476,110.057,68.933,110.057L68.933,110.057L68.933,110.057z M85.19,106.138c0,0.746-0.143,1.422-0.436,2.021
			c-0.289,0.599-0.714,1.064-1.278,1.397c-0.562,0.331-1.249,0.5-2.052,0.5c-0.794,0-1.477-0.169-2.044-0.5
			c-0.568-0.333-0.998-0.798-1.284-1.397c-0.286-0.602-0.429-1.275-0.429-2.021v-1.27c0-0.748,0.145-1.42,0.429-2.021
			c0.287-0.602,0.716-1.062,1.284-1.396c0.567-0.333,1.25-0.5,2.044-0.5c0.804,0,1.487,0.167,2.052,0.5
			c0.564,0.334,0.989,0.797,1.278,1.396c0.293,0.604,0.436,1.275,0.436,2.021V106.138L85.19,106.138z M83.114,106.138v-1.27
			c0-0.656-0.146-1.176-0.434-1.556c-0.288-0.382-0.707-0.573-1.254-0.573c-0.542,0-0.958,0.191-1.249,0.573
			c-0.287,0.38-0.433,0.898-0.433,1.556v1.27c0,0.656,0.146,1.172,0.439,1.555c0.291,0.381,0.706,0.572,1.244,0.572
			c0.54,0,0.957-0.191,1.25-0.572C82.967,107.31,83.114,106.794,83.114,106.138L83.114,106.138z M91.438,99.075
			c0,0.178-0.079,0.269-0.239,0.269h-0.707c-0.265,0-0.458,0.023-0.583,0.073c-0.123,0.047-0.211,0.143-0.265,0.278
			c-0.055,0.141-0.082,0.337-0.082,0.594v0.769h1.515c0.086,0,0.161,0.032,0.223,0.092c0.062,0.062,0.091,0.14,0.091,0.225v0.943
			c0,0.081-0.031,0.151-0.095,0.209c-0.064,0.063-0.139,0.091-0.219,0.091h-1.515v6.984c0,0.091-0.028,0.17-0.089,0.231
			c-0.059,0.065-0.134,0.099-0.225,0.099h-1.433c-0.085,0-0.163-0.033-0.23-0.099c-0.065-0.07-0.099-0.146-0.099-0.231v-6.984
			l-1.397-0.224c-0.208-0.037-0.315-0.137-0.315-0.301v-0.722c0-0.087,0.029-0.16,0.086-0.224c0.061-0.061,0.137-0.093,0.229-0.093
			h1.396v-0.769c0-0.65,0.111-1.164,0.332-1.533c0.219-0.37,0.529-0.628,0.921-0.771c0.391-0.143,0.882-0.216,1.472-0.216
			c0.231,0,0.545,0.042,0.943,0.125c0.191,0.043,0.288,0.13,0.288,0.25L91.438,99.075L91.438,99.075L91.438,99.075z M103.58,109.51
			c0,0.195-0.105,0.308-0.315,0.334c-0.102,0.01-0.235,0.028-0.402,0.06c-0.167,0.03-0.415,0.062-0.755,0.086
			c-0.338,0.023-0.611,0.043-0.818,0.055c-0.207,0.013-0.544,0.016-1.009,0.016c-0.75,0-1.388-0.089-1.918-0.266
			c-0.528-0.18-0.946-0.503-1.251-0.976c-0.308-0.475-0.463-1.136-0.463-1.978v-5.494c0-0.847,0.155-1.508,0.463-1.984
			c0.306-0.475,0.724-0.803,1.251-0.979c0.53-0.176,1.167-0.267,1.918-0.267c1.113,0,2.11,0.073,2.984,0.224
			c0.125,0.019,0.208,0.047,0.251,0.094c0.045,0.047,0.065,0.125,0.065,0.24v1.002c0,0.088-0.027,0.162-0.091,0.225
			c-0.062,0.06-0.139,0.091-0.226,0.091h-3.21c-0.457,0-0.775,0.098-0.962,0.292c-0.183,0.195-0.276,0.552-0.276,1.06v1.7h4.266
			c0.088,0,0.163,0.029,0.223,0.092c0.061,0.061,0.093,0.137,0.093,0.221v1.136c0,0.086-0.035,0.159-0.102,0.224
			c-0.065,0.062-0.138,0.094-0.215,0.094h-4.266v2.031c0,0.508,0.094,0.855,0.276,1.055c0.188,0.194,0.506,0.297,0.963,0.297h3.21
			c0.098,0,0.179,0.026,0.231,0.084c0.058,0.06,0.084,0.132,0.084,0.231V109.51L103.58,109.51L103.58,109.51z M112.541,109.602
			c0,0.08-0.03,0.157-0.097,0.227c-0.062,0.07-0.136,0.104-0.218,0.104h-1.455c-0.088,0-0.16-0.033-0.217-0.104
			c-0.061-0.068-0.091-0.146-0.091-0.227v-5.192c0-0.416-0.05-0.748-0.146-0.99c-0.098-0.247-0.261-0.428-0.486-0.54
			c-0.229-0.112-0.541-0.167-0.942-0.167c-0.479,0-0.993,0.055-1.542,0.167v6.724c0,0.093-0.028,0.171-0.088,0.233
			c-0.058,0.062-0.135,0.098-0.227,0.098h-1.447c-0.09,0-0.166-0.035-0.224-0.104c-0.062-0.067-0.089-0.145-0.089-0.227v-7.868
			c0-0.151,0.104-0.261,0.314-0.313c0.524-0.146,1.086-0.258,1.688-0.346c0.603-0.083,1.162-0.125,1.681-0.125
			c1.231,0,2.138,0.273,2.719,0.815c0.579,0.547,0.867,1.422,0.867,2.628L112.541,109.602L112.541,109.602L112.541,109.602z
			 M117.812,111.411c0.42,0,0.736-0.043,0.951-0.122c0.215-0.081,0.359-0.219,0.436-0.41c0.075-0.191,0.11-0.479,0.11-0.869v-0.122
			c-0.117,0.021-0.366,0.058-0.749,0.103c-0.381,0.046-0.637,0.069-0.764,0.069c-0.836,0-1.533-0.159-2.09-0.47
			c-0.559-0.312-0.976-0.768-1.253-1.36c-0.275-0.594-0.416-1.303-0.416-2.124v-1.204c0-0.82,0.139-1.527,0.416-2.123
			c0.279-0.596,0.694-1.049,1.253-1.359c0.557-0.312,1.255-0.471,2.09-0.471c0.282,0,0.557,0.01,0.826,0.025
			c0.27,0.019,0.511,0.042,0.725,0.069c0.212,0.024,0.496,0.074,0.85,0.142c0.354,0.065,0.609,0.123,0.77,0.167
			c0.168,0.044,0.28,0.094,0.339,0.153c0.055,0.058,0.085,0.147,0.085,0.27v8.121c0,0.737-0.131,1.341-0.39,1.813
			c-0.259,0.471-0.652,0.814-1.184,1.035c-0.531,0.222-1.198,0.331-2.003,0.331c-0.532,0-1.059-0.065-1.58-0.195
			c-0.525-0.133-0.96-0.274-1.309-0.435c-0.065-0.037-0.128-0.072-0.183-0.112c-0.059-0.034-0.095-0.081-0.115-0.122
			c-0.021-0.05-0.031-0.107-0.031-0.18v-0.8c0-0.229,0.11-0.315,0.33-0.251c0.422,0.103,0.899,0.199,1.435,0.289
			C116.894,111.365,117.378,111.411,117.812,111.411L117.812,111.411z M119.31,108.238v-5.448c-0.193-0.042-0.419-0.077-0.669-0.102
			c-0.254-0.026-0.535-0.039-0.843-0.039c-0.634,0-1.072,0.195-1.316,0.591c-0.243,0.396-0.364,0.948-0.364,1.662v1.204
			c0,0.324,0.026,0.626,0.077,0.899c0.053,0.279,0.142,0.519,0.271,0.725c0.128,0.205,0.301,0.36,0.521,0.469
			c0.222,0.106,0.491,0.161,0.814,0.161c0.186,0,0.427-0.011,0.729-0.038C118.829,108.294,119.089,108.266,119.31,108.238
			L119.31,108.238z M125.32,99.566c0,0.09-0.031,0.166-0.091,0.224c-0.062,0.062-0.137,0.09-0.223,0.09h-1.527
			c-0.081,0-0.156-0.027-0.226-0.09c-0.07-0.058-0.105-0.134-0.105-0.224V98.18c0-0.083,0.035-0.156,0.105-0.219
			c0.067-0.062,0.146-0.099,0.226-0.099h1.525c0.086,0,0.16,0.033,0.223,0.094c0.061,0.06,0.092,0.135,0.092,0.224L125.32,99.566
			L125.32,99.566L125.32,99.566z M125.274,109.602c0,0.091-0.029,0.17-0.09,0.234c-0.057,0.062-0.134,0.096-0.227,0.096h-1.446
			c-0.091,0-0.167-0.033-0.226-0.104c-0.06-0.068-0.088-0.146-0.088-0.227v-8.229c0-0.086,0.028-0.16,0.088-0.224
			c0.059-0.06,0.135-0.091,0.226-0.091h1.446c0.1,0,0.174,0.028,0.232,0.083c0.056,0.059,0.083,0.133,0.083,0.229L125.274,109.602
			L125.274,109.602z M134.351,109.602c0,0.08-0.03,0.157-0.096,0.227c-0.062,0.07-0.137,0.104-0.219,0.104h-1.455
			c-0.086,0-0.16-0.033-0.219-0.104c-0.061-0.068-0.089-0.146-0.089-0.227v-5.192c0-0.416-0.05-0.748-0.146-0.99
			c-0.098-0.247-0.262-0.428-0.484-0.54c-0.229-0.112-0.542-0.167-0.943-0.167c-0.478,0-0.994,0.055-1.541,0.167v6.724
			c0,0.093-0.029,0.171-0.089,0.233c-0.058,0.062-0.134,0.098-0.226,0.098h-1.447c-0.092,0-0.167-0.035-0.225-0.104
			c-0.061-0.067-0.09-0.145-0.09-0.227v-7.868c0-0.151,0.105-0.261,0.315-0.313c0.523-0.146,1.085-0.258,1.687-0.346
			c0.604-0.083,1.162-0.125,1.681-0.125c1.233,0,2.141,0.273,2.72,0.815c0.581,0.547,0.867,1.422,0.867,2.628v5.208H134.351
			L134.351,109.602L134.351,109.602z M141.31,104.74v-0.06c0-0.638-0.146-1.117-0.445-1.445c-0.297-0.328-0.7-0.492-1.212-0.492
			c-0.323,0-0.616,0.07-0.867,0.214c-0.254,0.139-0.453,0.355-0.595,0.641c-0.144,0.287-0.215,0.648-0.215,1.086v0.06h3.336v-0.003
			H141.31z M139.892,110.057c-0.661,0-1.295-0.119-1.896-0.364c-0.605-0.239-1.108-0.657-1.511-1.25
			c-0.402-0.588-0.603-1.364-0.603-2.337v-1.16c0-0.804,0.146-1.511,0.438-2.12c0.297-0.609,0.727-1.075,1.297-1.396
			c0.569-0.317,1.249-0.479,2.032-0.479c0.791,0,1.468,0.167,2.034,0.506c0.566,0.338,0.995,0.809,1.281,1.406
			c0.291,0.599,0.436,1.294,0.436,2.083v0.875c0,0.267-0.104,0.401-0.314,0.401h-5.13v0.047c0,0.594,0.15,1.075,0.445,1.443
			c0.297,0.369,0.848,0.554,1.649,0.554c0.441,0,0.918-0.044,1.429-0.136c0.513-0.087,0.931-0.185,1.258-0.289
			c0.22-0.066,0.332,0.019,0.332,0.249v0.931c0,0.104-0.027,0.184-0.084,0.239c-0.055,0.057-0.135,0.113-0.25,0.168
			c-0.32,0.17-0.74,0.316-1.26,0.443C140.965,109.993,140.435,110.057,139.892,110.057L139.892,110.057z M150.122,104.74v-0.06
			c0-0.638-0.148-1.117-0.446-1.445c-0.296-0.328-0.701-0.492-1.211-0.492c-0.327,0-0.616,0.07-0.869,0.214
			c-0.252,0.139-0.454,0.355-0.595,0.641c-0.145,0.287-0.215,0.648-0.215,1.086v0.06h3.336V104.74L150.122,104.74z M148.703,110.057
			c-0.662,0-1.292-0.119-1.895-0.364c-0.607-0.239-1.111-0.657-1.512-1.25c-0.402-0.588-0.604-1.364-0.604-2.337v-1.16
			c0-0.804,0.146-1.511,0.44-2.12s0.724-1.075,1.294-1.396c0.569-0.317,1.249-0.479,2.035-0.479c0.789,0,1.465,0.167,2.033,0.506
			c0.566,0.338,0.994,0.809,1.282,1.406c0.29,0.599,0.435,1.294,0.435,2.083v0.875c0,0.267-0.104,0.401-0.313,0.401h-5.128v0.047
			c0,0.594,0.147,1.075,0.444,1.443c0.297,0.369,0.848,0.554,1.648,0.554c0.441,0,0.918-0.044,1.431-0.136
			c0.512-0.087,0.933-0.185,1.261-0.289c0.22-0.066,0.331,0.019,0.331,0.249v0.931c0,0.104-0.027,0.184-0.082,0.239
			c-0.057,0.057-0.139,0.113-0.249,0.168c-0.323,0.17-0.742,0.316-1.263,0.443C149.775,109.993,149.246,110.057,148.703,110.057
			L148.703,110.057z M158.068,102.727c-0.103-0.005-0.201-0.012-0.298-0.016c-0.098-0.001-0.233-0.001-0.406-0.001
			c-0.481,0-0.997,0.056-1.547,0.168v6.724c0,0.091-0.027,0.17-0.086,0.234c-0.059,0.062-0.137,0.096-0.227,0.096h-1.448
			c-0.092,0-0.166-0.033-0.225-0.104c-0.061-0.068-0.089-0.146-0.089-0.227v-7.87c0-0.15,0.105-0.26,0.313-0.312
			c0.523-0.146,1.084-0.258,1.688-0.346c0.604-0.084,1.163-0.125,1.682-0.125c0.266,0,0.481,0.01,0.645,0.031
			c0.212,0.021,0.318,0.121,0.318,0.299v1.133C158.387,102.62,158.279,102.727,158.068,102.727L158.068,102.727z M161.637,99.566
			c0,0.09-0.03,0.166-0.093,0.224c-0.062,0.062-0.137,0.09-0.224,0.09h-1.527c-0.082,0-0.156-0.027-0.225-0.09
			c-0.07-0.058-0.105-0.134-0.105-0.224V98.18c0-0.083,0.035-0.156,0.105-0.219c0.066-0.062,0.144-0.099,0.225-0.099h1.525
			c0.088,0,0.16,0.033,0.223,0.094c0.062,0.06,0.094,0.135,0.094,0.224L161.637,99.566L161.637,99.566L161.637,99.566z
			 M161.59,109.602c0,0.091-0.029,0.17-0.088,0.234c-0.057,0.062-0.135,0.096-0.227,0.096h-1.446c-0.091,0-0.168-0.033-0.227-0.104
			c-0.062-0.068-0.089-0.146-0.089-0.227v-8.229c0-0.086,0.027-0.16,0.089-0.224c0.058-0.06,0.134-0.091,0.227-0.091h1.446
			c0.098,0,0.174,0.028,0.23,0.083c0.057,0.059,0.082,0.133,0.082,0.229L161.59,109.602L161.59,109.602L161.59,109.602z
			 M170.67,109.602c0,0.08-0.029,0.157-0.098,0.227c-0.062,0.07-0.135,0.104-0.217,0.104h-1.456c-0.086,0-0.159-0.033-0.218-0.104
			c-0.061-0.068-0.09-0.146-0.09-0.227v-5.192c0-0.416-0.051-0.748-0.145-0.99c-0.098-0.247-0.262-0.428-0.485-0.54
			c-0.228-0.112-0.544-0.167-0.941-0.167c-0.479,0-0.995,0.055-1.543,0.167v6.724c0,0.093-0.027,0.171-0.089,0.233
			c-0.059,0.062-0.135,0.098-0.225,0.098h-1.447c-0.095,0-0.17-0.035-0.227-0.104c-0.061-0.067-0.09-0.145-0.09-0.227v-7.868
			c0-0.151,0.107-0.261,0.315-0.313c0.522-0.146,1.085-0.258,1.687-0.346c0.604-0.083,1.161-0.125,1.681-0.125
			c1.231,0,2.142,0.273,2.72,0.815c0.58,0.547,0.867,1.422,0.867,2.628V109.602L170.67,109.602z"/>
		<path fill="#00447C" d="M80.976,87.722c0,0.5-0.155,0.891-0.484,1.172c-0.313,0.294-0.72,0.436-1.203,0.436h-9.933
			c-0.408,0-0.767-0.154-1.125-0.482c-0.345-0.314-0.562-0.688-0.658-1.125L63.26,69.929H41.704l-4.294,17.79
			c-0.095,0.438-0.313,0.81-0.673,1.125c-0.344,0.328-0.719,0.481-1.109,0.481h-9.935c-0.485,0-0.889-0.141-1.219-0.438
			c-0.311-0.279-0.467-0.672-0.467-1.172c0.03-0.061,0.047-0.109,0.061-0.172c0.016-0.062,0.016-0.156,0.016-0.279L39.47,28.482
			c1.642-6.355,5.982-9.546,12.996-9.546c7.045,0,11.388,3.188,13.044,9.546l15.371,58.783c0.03,0.092,0.061,0.172,0.078,0.231
			C80.976,87.566,80.976,87.642,80.976,87.722L80.976,87.722L80.976,87.722z M60.746,59.242L53.98,31.374
			c-0.154-0.576-0.341-0.967-0.53-1.168c-0.202-0.205-0.533-0.299-0.984-0.299c-0.438,0-0.749,0.094-0.938,0.299
			C51.326,30.407,51.152,30.8,51,31.374l-6.78,27.868H60.746L60.746,59.242L60.746,59.242z"/>
		<path fill="#00447C" d="M111.264,90.078c-3.045,0-6.061-0.438-9.061-1.325c-2.981-0.894-5.763-2.406-8.325-4.562
			c-2.562-2.143-4.608-5.094-6.171-8.856c-1.544-3.75-2.326-8.391-2.326-13.92V47.636c0-7.463,1.264-13.321,3.81-17.572
			c2.548-4.232,5.733-7.151,9.544-8.746c3.812-1.577,7.983-2.376,12.527-2.376c2.359,0,4.625,0.236,6.794,0.703
			c2.188,0.486,4.08,1.017,5.656,1.626c1.592,0.608,2.577,1.062,2.982,1.326c1.375,0.768,2.062,1.611,2.062,2.516v6.354
			c0,1.52-0.783,2.003-2.343,1.422c-1.062-0.405-2.485-0.825-4.233-1.276c-1.748-0.474-3.482-0.828-5.188-1.109
			c-1.718-0.266-3.342-0.408-4.905-0.408c-3.108,0-5.655,0.548-7.639,1.641c-1.982,1.111-3.467,2.939-4.469,5.5
			c-0.981,2.562-1.484,6.028-1.484,10.388v13.778c0,4.229,0.502,7.653,1.484,10.231c1,2.576,2.484,4.436,4.483,5.576
			c2,1.138,4.546,1.717,7.624,1.717c2.407,0,4.92-0.295,7.514-0.875c2.594-0.576,4.858-1.231,6.812-1.967
			c1.561-0.578,2.342-0.097,2.342,1.422v6.388c0,0.903-0.688,1.766-2.062,2.564c-1.279,0.732-3.357,1.514-6.231,2.355
			C117.606,89.657,114.529,90.078,111.264,90.078L111.264,90.078L111.264,90.078z"/>
		<path fill="#00447C" d="M179.716,86.812c0,1.173-0.628,1.832-1.874,1.982c-0.609,0.062-1.406,0.175-2.406,0.361
			c-0.985,0.188-2.485,0.36-4.5,0.517c-2.017,0.141-3.641,0.25-4.873,0.312c-1.234,0.062-3.25,0.094-6.016,0.094
			c-4.469,0-8.265-0.53-11.417-1.578c-3.157-1.062-5.639-2.997-7.466-5.812c-1.828-2.825-2.751-6.764-2.751-11.794V38.17
			c0-5.044,0.923-8.984,2.751-11.812c1.827-2.841,4.309-4.775,7.466-5.838c3.155-1.047,6.95-1.581,11.417-1.581
			c6.638,0,12.574,0.438,17.792,1.331c0.73,0.091,1.23,0.268,1.48,0.545c0.268,0.281,0.394,0.749,0.394,1.421v5.986
			c0,0.516-0.175,0.953-0.547,1.327c-0.358,0.36-0.812,0.546-1.325,0.546h-19.12c-2.719,0-4.625,0.58-5.732,1.734
			c-1.096,1.172-1.643,3.278-1.643,6.326v10.121h25.398c0.516,0,0.973,0.188,1.329,0.551c0.361,0.375,0.547,0.812,0.547,1.326v6.748
			c0,0.521-0.203,0.953-0.595,1.328c-0.391,0.359-0.828,0.546-1.281,0.546h-25.396v12.106c0,3.017,0.547,5.106,1.642,6.28
			c1.109,1.174,3.016,1.766,5.733,1.766h19.119c0.577,0,1.047,0.172,1.372,0.501c0.346,0.343,0.502,0.796,0.502,1.373v6.012V86.812
			L179.716,86.812L179.716,86.812z"/>
	</g>
</g>
</svg>
