<?xml version="1.0" encoding="UTF-8"?>
<!DOCTYPE svg PUBLIC "-//W3C//DTD SVG 1.1//EN" "http://www.w3.org/Graphics/SVG/1.1/DTD/svg11.dtd">
<!-- Creator: CorelDRAW 2020 (64-Bit) -->
<svg xmlns="http://www.w3.org/2000/svg" xml:space="preserve" width="2.75591in" height="2.93307in" version="1.1" style="shape-rendering:geometricPrecision; text-rendering:geometricPrecision; image-rendering:optimizeQuality; fill-rule:evenodd; clip-rule:evenodd"
viewBox="0 0 2755.91 2933.07"
 xmlns:xlink="http://www.w3.org/1999/xlink"
 xmlns:xodm="http://www.corel.com/coreldraw/odm/2003">
 <defs>
  <style type="text/css">
   <![CDATA[
    .fil0 {fill:#FEFEFE}
   ]]>
  </style>
 </defs>
 <g id="Layer_x0020_1">
  <metadata id="CorelCorpID_0Corel-Layer"/>
  <g id="_3830412480">
   <path class="fil0" d="M109.35 1054.44l0 1388.59c11.32,17 34.39,212.16 232.97,273.78 69.59,21.59 401.69,24.34 483.28,17.1 9.77,-25.54 45.91,-113.8 46.6,-140.35 -87.19,4.64 -180.61,1.52 -268.51,1.52 -82.48,0 -185.5,13.16 -250.98,-26.06 -44.96,-26.93 -40.52,-25.77 -69.9,-68.31 -52.61,-76.17 -32.09,-262.11 -32.09,-383.25 0,-364.71 -6.39,-735.22 -0.09,-1099.1 31.61,-16.27 474.88,-357.02 505.59,-381.78l187.77 -143.52c92.89,-70.87 8.12,-121.29 -64.65,-184.33l-90.83 -78.11c-17.88,-14.06 -19.78,-9.49 -28.37,-27.97 37.41,-13.69 1019.54,-3.46 1151.39,-3.46 149.69,0 350.89,-27.56 350.47,222.47 -0.31,185.08 -9.85,399.68 0.87,581.28 15.35,-6.3 74.43,-65.66 91.71,-81.98 45.28,-42.76 49,-41.39 48.64,-123.81 -0.52,-118.84 -0.18,-237.85 -0.02,-356.7 0.22,-154.46 -50.92,-278.96 -181.17,-341.8 -91.7,-44.23 -101.26,-22.59 -138.35,-39.92l-1535.6 0 -7.17 5.67c-0.94,0.69 -2.63,1.93 -3.69,2.69 -1.05,0.76 -2.67,1.8 -3.76,2.59 -45.16,32.71 -88.27,177.52 -109.37,228.98 -23.44,57.17 -296.51,737.13 -314.76,755.81z"/>
   <path class="fil0" d="M1329.57 2133.95c7.94,20 350.54,354.93 369.22,365.22l562.19 -539.05c56.87,-53.15 238,-217.97 281.82,-269.12 39.31,-45.87 105.66,-76.59 99.22,-173.56 -5.39,-81.19 -72.81,-128.95 -114.06,-166.4 -82.29,-74.69 -192.13,-213.13 -349.47,-30.37l-704.85 677.84c-43.87,40.04 -89.04,82.45 -144.06,135.44z"/>
   <path class="fil0" d="M926.33 2874.63l13.35 0c11.25,-9.64 -7.04,-0.23 17.07,-10.01l476.26 -124.16c30.85,-7.28 22.48,-2.17 42.14,-20.54 32.73,-30.57 90.22,-80.71 116.93,-114.37 -10.53,-19.85 -347.81,-354.2 -368.87,-364.02 -32.63,13.42 -89.22,82.22 -120.4,112.18 -43.9,42.19 -39.57,81.12 -67.56,164.12 -19.52,57.88 -35.62,118.26 -54.73,176.8 -14.54,44.53 -48.16,136.6 -54.19,180z"/>
   <polygon class="fil0" points="636.35,996.97 2023.74,997.41 2022.28,860.78 635.72,857.96 "/>
   <path class="fil0" d="M638.48 1186.3l-2.26 137.26c341.96,9.89 767.44,2.28 1118.89,1.93l73.7 -1.32 0.06 -136.35 -1190.4 -1.52z"/>
   <path class="fil0" d="M2080.5 2590.43l-312.87 -1.01c-19.76,22.27 -64.82,108.8 -77.25,144.92l390.13 -0.89c175.47,0.23 296.88,-99.62 345.6,-213.87 32.7,-76.68 25.08,-157.45 25.08,-251.94 0,-52.91 6.45,-241.41 -4.14,-278.61 -173.1,182.16 -144.37,51.41 -144.03,334.93 0.12,100.91 0.61,130.13 -47.58,193.92 -33.47,44.31 -94.25,72.56 -174.93,72.55z"/>
   <polygon class="fil0" points="636.87,1650.67 1541.71,1653.31 1542.92,1515 636.39,1514.65 "/>
   <path class="fil0" d="M639.79 1843.96l-3.89 136.67c47.67,5.91 542.85,5.9 572.87,-1.83l-0.24 -131.99c-39.23,-12.5 -471.12,-3.76 -568.75,-2.85z"/>
  </g>
 </g>
</svg>
