<?xml version="1.0" encoding="utf-8"?>
<!-- Generator: Adobe Illustrator 24.1.0, SVG Export Plug-In . SVG Version: 6.00 Build 0)  -->
<svg version="1.1" xmlns="http://www.w3.org/2000/svg" xmlns:xlink="http://www.w3.org/1999/xlink" x="0px" y="0px"
	 viewBox="0 0 42.52 42.52" style="enable-background:new 0 0 42.52 42.52;" xml:space="preserve">
<style type="text/css">
	.st0{display:none;}
	.st1{fill:#285D9F;}
	.st2{fill:#FFFFFF;}
</style>
<g id="Layer_1" class="st0">
</g>
<g id="Layer_2">
	<g id="Facbook">
		<circle class="st1" cx="21.26" cy="21.26" r="21.26"/>
		<path class="st2" d="M27.54,8.22c0,0-4.29-0.49-5.74,0.18c-0.16,0.07-0.33,0.15-0.49,0.22c-0.49,0.2-1.53,0.79-2.34,2.33
			c0,0-0.59,1.22-0.55,3.12l-0.02,3.13l-3.84,0.01l-0.01,4.45h3.84l0.02,11.4l4.54,0.03l0.03-11.43l3.85-0.01l0.59-4.48l-4.44,0.03
			L23,13.9c0,0,0.02-1.76,2.32-1.71l2.2,0.02L27.54,8.22z"/>
	</g>
	<g>
	</g>
	<g>
	</g>
	<g>
	</g>
	<g>
	</g>
	<g>
	</g>
	<g>
	</g>
</g>
</svg>
