<?xml version="1.0" encoding="utf-8"?>
<!-- Generator: Adobe Illustrator 24.1.0, SVG Export Plug-In . SVG Version: 6.00 Build 0)  -->
<svg version="1.1" xmlns="http://www.w3.org/2000/svg" xmlns:xlink="http://www.w3.org/1999/xlink" x="0px" y="0px"
	 viewBox="0 0 42.52 42.52" style="enable-background:new 0 0 42.52 42.52;" xml:space="preserve">
<style type="text/css">
	.st0{display:none;}
	.st1{fill:#EA4535;}
	.st2{fill:#FFFFFF;}
</style>
<g id="Layer_1" class="st0">
</g>
<g id="Layer_2">
	<g id="Google">
		<circle class="st1" cx="21.26" cy="21.26" r="21.26"/>
		<g>
			<path class="st2" d="M22.67,20.56l-8.23,0l0,3.04l4.49,0c-0.79,1.66-2.45,2.81-4.38,2.81c0,0,0,0,0,0
				c-2.68,0-4.86-2.23-4.86-4.96c0-1.33,0.51-2.58,1.43-3.52c0.92-0.93,2.13-1.44,3.43-1.44c0,0,0,0,0,0c1.14,0,2.2,0.39,3.08,1.12
				l2.09-2.49c-1.45-1.21-3.28-1.88-5.17-1.88c0,0,0,0,0,0c-2.17,0-4.21,0.86-5.74,2.41c-1.53,1.55-2.37,3.61-2.36,5.8
				c0,4.53,3.64,8.21,8.11,8.21c0,0,0,0,0,0c4.47,0,8.11-3.68,8.11-8.21c0-0.13,0-0.26-0.01-0.39c0.01-0.1,0.02-0.21,0.02-0.31
				L22.67,20.56z"/>
			<polygon class="st2" points="32,20.38 32,16.88 30.41,16.88 30.41,20.38 26.92,20.38 26.92,21.97 30.41,21.97 30.41,25.46 
				32,25.46 32,21.97 35.49,21.97 35.49,20.38 			"/>
		</g>
	</g>
	<g>
	</g>
	<g>
	</g>
	<g>
	</g>
	<g>
	</g>
	<g>
	</g>
	<g>
	</g>
</g>
</svg>
