<?xml version="1.0" encoding="UTF-8"?>
<!DOCTYPE svg PUBLIC "-//W3C//DTD SVG 1.1//EN" "http://www.w3.org/Graphics/SVG/1.1/DTD/svg11.dtd">
<!-- Creator: CorelDRAW 2020 (64-Bit) -->
<svg xmlns="http://www.w3.org/2000/svg" xml:space="preserve" width="2.75591in" height="2.93307in" version="1.1" style="shape-rendering:geometricPrecision; text-rendering:geometricPrecision; image-rendering:optimizeQuality; fill-rule:evenodd; clip-rule:evenodd"
viewBox="0 0 2755.91 2933.07"
 xmlns:xlink="http://www.w3.org/1999/xlink"
 xmlns:xodm="http://www.corel.com/coreldraw/odm/2003">
 <defs>
  <style type="text/css">
   <![CDATA[
    .fil0 {fill:#FEFEFE}
   ]]>
  </style>
 </defs>
 <g id="Layer_x0020_1">
  <metadata id="CorelCorpID_0Corel-Layer"/>
  <g id="_3829397648">
   <path class="fil0" d="M252.56 2522.7l0 29.96c55.19,19.98 53.26,15.04 119.83,14.98l2111.94 -0c0,-75.31 7.36,-92.93 -11.84,-160.41 -10.21,-35.91 3.29,-84.28 -8.34,-118.96 -15.4,-45.93 -4.07,-57.73 -16.8,-95.54 -0.6,-1.78 -1.51,-3.61 -2.11,-5.37l-36.08 -61.28 -46.4 -21c-51.11,-15.64 -19.97,-19.13 -86,-33.83 -2.08,-0.45 -4,-0.94 -6,-1.48l-101.22 -11.67c-45.17,4.05 -32.96,9.04 -66.67,15.74 -41.6,8.27 1.89,3.33 -83.08,36.74 -25.34,9.97 -43.71,20.41 -54.55,42.81 -5.21,10.77 -6.97,22.28 -10.96,33.97l-10.7 79.17c-11.8,58.21 -13.41,-6.13 -13.41,121.37l-14.98 0c0,-43.61 3.83,-83.94 -9.76,-125.04 -8.07,-24.41 -1.95,-44.26 -6.78,-68.11 -0.42,-2.08 -1.07,-3.91 -1.61,-5.87l-8.64 -21.32c-4.27,-15.61 -3.17,-17.57 -3.17,-34.27 -13.25,-0.3 -8.54,0.1 -19.32,-3.15l-96.99 -45.31c-12.43,-8.65 -3.58,-4.26 -19.71,-10.24 -49.52,-18.36 -119.8,-22.14 -169.04,-6.71 -27.38,8.58 -39.74,3.84 -62.02,20.35l-94.43 47.87c-13.77,13.41 -15.17,24.83 -18.07,41.83 -1.94,11.26 0.22,5.98 -3.32,19.15l-41.33 175.85c0,-40.71 0.26,-94.74 -9.76,-125.05 -9.3,-28.14 -2.04,-33.37 -5.72,-61.69 -7.02,-54.09 -13.09,9.75 -14.48,-52.92 -12.52,-0.29 -2.92,0.89 -13.2,-1.78 -1.42,-0.37 -4.43,-0.85 -6.13,-1.37 -1.61,-0.48 -3.98,-1.16 -5.7,-1.78 -1.66,-0.59 -3.67,-1.48 -5.33,-2.17 -1.6,-0.67 -3.46,-1.72 -5.02,-2.45l-134.3 -60.42c-30.35,-9.52 -85.39,-11.11 -119.29,-1.81 -60.51,16.59 -50.06,7.61 -82.03,30.31l-25.65 11.8c-8.65,2.74 -6.28,0.95 -17.54,4.93 -1.76,0.63 -3.72,1.38 -5.43,2.05 -1.68,0.67 -3.63,1.52 -5.25,2.24 -28.26,12.59 -33,27.67 -54.43,35.43l0 74.89c-29.58,11.93 -9.63,-11.04 -14.7,75.17 -1.87,31.78 -7.81,50.59 -30.24,59.64 0,-26.31 1.64,-57.35 0.54,-82.93 -1.77,-41.26 -10.32,-17.61 -15.23,-67.15 -3.08,-31.06 -6.26,-65.21 -34.82,-85l-59.54 -22.84c-16.42,-5.57 -2.21,-0.04 -15.99,-6.47l-74.6 -30.25c-22.83,-7.26 -50.27,-5.48 -77.85,-5.4l-68.84 13.6c-1.86,0.61 -3.92,1.09 -5.8,1.69l-134.48 60.24c-1.01,1.2 -2.19,3.09 -3.1,4.39l-5.41 9.57c-0.81,1.47 -1.76,3.43 -2.52,4.96 -13.25,26.74 -8.43,54.09 -16.89,80.47 -6.44,20.06 -3.44,-14.41 -9.31,28.14 -1.84,13.31 0.43,31.31 0,44.93 -1.55,49.77 -17.35,22.63 -15.19,149.57 1.28,75.25 7.06,58.25 -15.16,67.22z"/>
   <path class="fil0" d="M493.79 1114.74c10.15,-16.32 18.63,-21.44 31.26,-34.65 18.52,-19.38 8.22,-18.09 33.28,-30.06 12.94,35.24 8.28,88.74 9.07,132.1 1.85,103.2 16.78,178.03 -67.2,82.39 -20.41,-20.43 -42.27,-50.63 -67.9,-59.92l0 -14.97c31.93,-11.56 26.28,-24.87 35.34,-39.46 0.85,-1.36 2.01,-3.23 2.91,-4.55 1.25,-1.84 5.27,-6.64 6.63,-8.41 16.57,-21.67 2.35,7.64 16.61,-22.47zm356.42 -164.77c-3.31,19.57 -5.89,39.59 -25.52,49.03l0.15 -49.03 -3.43 -104.84c-7.02,-0 -21.9,-0.94 -28.34,1.29 -20.52,7.1 -7.96,-6.89 -16.26,13.69 -20.15,8.13 -7.22,-4.46 -13.78,16.19l-16.18 103.64c0,-38.75 -18.83,-82.41 -27.93,-121.85l-17.01 -72.87 -59.91 0c-11.23,27.82 7.29,5.57 -33.49,18.94 -1.85,0.61 -3.84,1.19 -5.7,1.79l-22.71 7.27c-9.16,2.76 -8.38,1.24 -17.5,4.95 -24.03,9.77 -115.02,106.18 -132.86,136.75l-104.85 119.83c-17.28,29.6 -23.17,25.28 -42.64,47.23 -16.13,18.17 -28.4,34.2 -30.62,67.87l12.65 55.45c17.41,33.71 50.79,62.85 83.08,81.69 41.1,23.98 31.41,40.77 89.87,74.89 11.44,6.68 2.76,0.15 13.76,8.71 37.69,29.35 -2.19,12.68 66.04,53.78 2.64,1.6 13,8.91 13.31,9.15 28.41,23.73 13.5,22.46 31.35,81 3.11,10.19 4.92,2.56 5.41,24.54l467.91 0c-59.15,-26.74 -399.91,18.55 -453.56,-12.84 91.26,-5.17 389,11.76 448.25,-7.14 28.17,-91.87 -25.3,-368.07 5.5,-477.31l15.16 3.01c1.62,1.24 4.03,1.12 4.78,3.78l58.43 56.36c1.65,1.42 6.5,5.41 8.31,6.67 1.32,0.91 3.24,2.01 4.62,2.87 57.06,35.83 33.13,27.41 59.64,45.21l125.01 0.07 59.95 -37.4c1.43,-0.85 3.44,-1.77 4.89,-2.61l9.7 -5.27c24.21,-15.54 -12.39,10.86 8.87,-6.11 15.27,-12.19 12.83,-16.53 31.51,-28.39l51.04 -38.84c20.7,-16.48 -14.76,8.92 8.88,-6.1 9.88,-6.28 6,-2.66 14.69,-7.77 1.43,-0.84 3.44,-1.78 4.82,-2.66l27.57 -24.85c21.7,-19.14 25.5,-10.35 52.96,-36.9l14.69 -15.27c1.4,-1.68 5.2,-6.71 6.48,-8.5 26.54,-37.15 -10.85,-15.29 23.32,-29.09l0 -29.95c-19.12,-7.72 -26.4,-20.06 -32.33,-59.91 2.71,-8.35 5.37,-13.58 7.19,-18.7l5.84 -21.55 -25.63 0.89c-1.26,1.44 -3.27,1.65 -3.72,4.35 -1.33,8.04 -11.26,-2.08 -11.26,49.99 -49.75,0 -47.55,-5.8 -75.05,22.32l-129.24 87.94c-6.28,4.06 -5.47,4.02 -12.87,9.59l-37.33 22.59c-1.54,0.78 -3.48,1.7 -5.02,2.49 -2.04,1.03 -19.61,10.59 -19.8,10.68 -20.4,9.89 14.09,8.65 -27.75,8.73 -55.41,0.11 -114.7,-85.21 -153.55,-123.13 -50.4,-49.18 -42.83,-84.96 -113.7,-110.97l-34.37 -10.56c-63.3,-20.34 -40.68,-0.54 -50.37,-24.53l-29.95 0 -7.63 29.81c-17.75,52.81 3.96,36.58 -14.79,90.01 -11.27,32.15 -6.31,24.7 -9.02,59.92z"/>
   <path class="fil0" d="M2454.37 1312.64c-28.79,-6.43 -26.98,3.51 -32.71,-32.12l0.68 -757.79c-0.78,-52.25 -3.32,-55.96 42.89,-72.77l4.15 5.74c19.93,0 14.94,4.98 14.94,-14.94 -13.16,-2.35 -17,3.77 -6.47,-4.81l2.04 -38.6 4.43 -1.6c0,-19.92 4.99,-14.94 -14.94,-14.94l-3.37 6.53c-61.62,-20.12 -1191.78,-10.03 -1344.72,-5.74l-29.95 -0.95 -0 75.06c65.65,1.46 -5.73,13.52 59.92,14.98l0 449.34c21.13,7.65 24.04,19.83 41.27,33.62 11.61,9.27 2.79,5.58 18.64,11.32l0 -494.28 1153.33 0 0 823.8 -1153.33 0c0,-13.12 1.53,-22.71 -2.48,-34.97 -0.57,-1.76 -1.43,-3.7 -2.18,-5.32 -0.7,-1.54 -1.88,-3.35 -2.73,-4.75l-18.3 -19.15c-23.94,-23.03 -13.72,-18.26 -34.23,-25.69l0 89.87c-65.65,1.46 5.73,13.51 -59.92,14.97l0 74.89c19.47,5.16 8.35,-2.78 14.98,14.98l1363.02 0c6.4,-17.68 11.51,-23.28 29.95,-29.96l-14.98 -59.91 -29.95 3.18z"/>
   <path class="fil0" d="M462.25 2043.39l164.76 0 37.59 -59.76c23.26,-46.41 50.04,-124.2 27.9,-170.46l-25.55 -49.38c-15.63,-24.52 -35.5,-41.74 -61.95,-50.39 -49.86,-16.31 -93.9,-21.31 -142.44,8.28 -1,0.61 -15.98,14.6 -19.37,18.07l-37.88 44.5c-3.78,9.2 -2.08,8.29 -5.04,17.42l-3.79 11.21c-7.85,22.62 -16.12,38.86 -4.07,75.51 21.97,66.8 -0.12,48.97 43.3,106.63 28.7,38.11 -21.26,-33.71 6.34,8.63l20.19 39.73z"/>
   <path class="fil0" d="M1016.44 2043.39l164.76 0c10.61,-29.31 -1.11,1.72 9.78,-20.17 28.19,-56.61 16.68,-6.94 38.98,-73.35 0.6,-1.79 1.39,-3.7 2,-5.48 0.79,-2.28 3.5,-8.41 4.22,-10.76 9.21,-29.37 10.61,-115.21 -1.87,-145.56 -0.67,-1.64 -1.67,-3.5 -2.41,-5.08l-95.18 -77.07c-61.32,-20.97 -101.48,-3.78 -142.91,37.76 -76.68,76.88 -58.5,152.48 -14.97,239.95 0.76,1.54 1.65,3.53 2.43,5.07l10.41 19.54c4.98,7.65 2.66,3.31 9.75,12.72 15.09,20.03 4.92,-5.43 15,22.44z"/>
   <path class="fil0" d="M1570.65 2043.39l164.76 0c1.08,-48.71 8.85,-11.84 50.49,-99.28 15.47,-32.48 11.57,-75.34 10,-118.48l-7.37 -37.57c-0.67,-1.64 -1.67,-3.5 -2.41,-5.08l-70.55 -64.26c-2.38,-1.21 -10.01,-5.43 -14.67,-7.8 -1.52,-0.77 -3.33,-1.89 -4.87,-2.63l-101.2 -0.21c-30.34,14.22 -70.54,54.66 -84.72,80.04 -0.81,1.46 -1.85,3.38 -2.62,4.87l-6.8 110.66c0.58,1.8 1.51,3.61 2.12,5.37l6.09 16.39c0.62,1.86 1.09,3.92 1.69,5.8l12.34 32.59c1,2.07 4.11,7.79 5.14,9.84l5 9.98c0.76,1.54 1.65,3.53 2.43,5.07l20.16 32.26c15.08,20.03 4.92,-5.43 15,22.44z"/>
   <path class="fil0" d="M1570.65 1159.68l29.96 0 0 29.96 -29.96 0 0 -29.96zm449.35 -179.74l0 -29.96 44.93 0 0 14.98c-24.8,8.98 -8.85,6.35 -19.91,10.05 -13.6,4.55 -3.78,4.93 -25.03,4.93zm-194.72 -44.93l-14.98 -44.94 29.96 0 -14.98 44.94zm329.52 -269.61l0 59.91c14.5,5.58 17.68,9.88 -11.44,48.31l-40.98 56.55c-3.98,4.1 -10.81,10.53 -14.33,15.62 -37.96,54.97 -19.77,33.04 -97.61,67.45 -26.8,11.85 -42.54,2.98 -70.95,-4.98 -15.61,-4.37 -17.58,-3.2 -34.3,-3.2 -1.01,-45.72 -0.02,-17.78 -11.04,-33.89 -20.22,-29.54 -6.01,9.63 -18.91,-26.03l-59.92 0c-7.87,21.76 -8.94,13.07 -21.87,30.85 -14.21,19.56 -22.35,31.07 -11.01,54.18 0.49,0.99 2.28,3.07 2.92,4.84 -21.58,7.81 -23.8,19.22 -32.63,34.77 -0.82,1.46 -1.73,3.48 -2.59,4.9l-16.89 20.56c-0.91,0.92 -7.6,7.15 -11.53,10.94 -7.91,7.63 -7.1,6.72 -15.24,14.72l-23.42 29.01c-0.84,1.44 -1.72,3.48 -2.55,4.94l-25.68 34.24c-1.07,1.11 -2.61,2.7 -3.7,3.79l-15.6 14.35c-26.32,15.28 -44.62,5.05 -71.74,25.62 -11.6,8.8 -1.95,6.03 -18.08,11.87l0 59.91c19.82,8 13.96,-15.4 14.97,29.96 12.91,0 16.26,-0.5 28.96,2.13 16.66,3.44 14.61,10.47 32.03,5.74 29.96,-8.16 52.1,-35.35 55.37,-63.04 5.09,-43.18 -1.39,0.02 -4.54,-23.15l49.21 -75.19c9.36,-9.03 13.15,-11.77 18.94,-18.5l44.81 -60.04c17.63,-19.98 5.41,3.55 14.86,-22.58l74.9 0c13.03,-36 1.94,6.04 14.98,-29.96l104.85 14.98c1.17,52.59 17.37,25.12 29.96,59.91l74.89 0 20.8 -39.66c6.09,-12.76 6.1,-3.31 7.94,-22.02 4.38,-44.17 -17.75,-22.27 -2.55,-53.33l38.92 -59.52c0.87,-1.37 1.97,-3.3 2.89,-4.59 1.28,-1.8 5.32,-6.59 6.76,-8.22 11.82,-13.37 3.48,-1.38 15.2,-14.76 19.01,-21.69 7.02,-23.81 25.83,-41.57 12.28,-11.58 2.97,-4.33 19.99,-9.96 2.3,-0.77 9.76,-2.15 12.14,-2.84 1.94,-0.58 3.99,-0.99 5.9,-1.59l16.19 -6.28c1.59,-0.71 3.45,-1.75 5,-2.5l19.71 -10.24c6.98,-3.56 -4.46,-0.48 14.95,-7.52l-25.39 -101.93c-18.45,-11.32 -11.4,2.27 -19.54,-17.89l-29.96 0c-6.13,15.18 -12.49,12.6 -19.69,17.76 -1.28,0.92 -3.26,2 -4.57,2.92 -23.43,16.46 -13.97,16.41 -35.66,24.26z"/>
   <path class="fil0" d="M761.81 740.28l74.89 0c8.09,-22.33 5.32,-13.63 33.9,-41 29.03,-27.81 31.24,-41.19 42.82,-76.99l20.94 -76.72c14.47,-41.74 5.72,-61.27 -27.7,-114.89l-49.2 -40.67c-14.07,-6.56 1.07,-1.92 -15.94,-6.53l-78.48 -1.49c-25.85,5.15 -46.03,20.8 -61.56,35.82l-35.3 47.09c-13.79,29.46 -13.68,76.28 -4.27,105.69l10.02 27.44c0.62,1.85 1.11,3.9 1.72,5.76 0.61,1.83 1.23,3.82 1.84,5.65l5.89 16.58c2.37,7.24 5.77,21.87 8.67,28.78l5.02 9.96c56.94,95.13 51.26,37.13 66.76,75.53z"/>
   <path class="fil0" d="M1121.3 381.59c152.94,-4.29 1283.09,-14.38 1344.72,5.74l3.37 -6.53 -3.37 6.53c-2.2,-20.17 16.62,-23.7 -63.86,-21.75l-599.34 0.25c-227.18,0 -454.35,0 -681.52,0l0 15.76zm1358.59 15.75l-2.04 38.6c-10.53,8.58 -6.69,2.46 6.47,4.81l-6.47 -4.81c22.79,1.28 21.48,20.2 22.22,-17.57 0.76,-38.43 -2.06,-17.05 -20.18,-21.03l4.43 -1.6 -4.43 1.6zm-14.66 52.61c-46.22,16.81 -43.67,20.52 -42.89,72.77l-0.68 757.79c5.72,35.63 3.92,25.69 32.71,32.12 -4.57,-21.18 4.69,-12.94 -14.98,-18.15l0 -823.8c49.69,-1.11 24.08,3.2 25.84,-20.72l4.15 5.74 -4.15 -5.74z"/>
   <path class="fil0" d="M1035.01 1579.07l11.39 0c0,-78.5 -9.85,-453.14 3.96,-494.28l-15.16 -3.01c-30.8,109.23 22.67,385.43 -5.5,477.31 -59.26,18.89 -356.99,1.96 -448.25,7.14 53.65,31.39 394.41,-13.9 453.56,12.84z"/>
   <path class="fil0" d="M493.79 1114.74l24.7 -18.56c12.27,-12.53 11.11,-18.22 33.63,-26.38l0 224.68c-41.46,-15.01 -6.04,-24.79 -51.92,-29.96 83.98,95.65 69.05,20.81 67.2,-82.39 -0.79,-43.37 3.87,-96.86 -9.07,-132.1 -25.06,11.96 -14.77,10.68 -33.28,30.06 -12.63,13.21 -21.11,18.33 -31.26,34.65z"/>
   <path class="fil0" d="M1585.62 820.74l25.63 -0.89 -5.84 21.55c-1.82,5.12 -4.48,10.35 -7.19,18.7l17.36 0 0 -59.92 -29.96 0 0 20.55z"/>
   <path class="fil0" d="M850.2 949.98l-25.38 0 -0.15 49.03c19.63,-9.44 22.22,-29.46 25.52,-49.03z"/>
   <polygon class="fil0" points="2199.74,2043.39 2274.63,2043.39 2199.74,2043.39 "/>
  </g>
 </g>
</svg>
