<?xml version="1.0" encoding="UTF-8"?>
<!DOCTYPE svg PUBLIC "-//W3C//DTD SVG 1.1//EN" "http://www.w3.org/Graphics/SVG/1.1/DTD/svg11.dtd">
<!-- Creator: CorelDRAW 2020 (64-Bit) -->
<svg xmlns="http://www.w3.org/2000/svg" xml:space="preserve" width="2.75591in" height="2.93307in" version="1.1" style="shape-rendering:geometricPrecision; text-rendering:geometricPrecision; image-rendering:optimizeQuality; fill-rule:evenodd; clip-rule:evenodd"
viewBox="0 0 2755.91 2933.07"
 xmlns:xlink="http://www.w3.org/1999/xlink"
 xmlns:xodm="http://www.corel.com/coreldraw/odm/2003">
 <defs>
  <style type="text/css">
   <![CDATA[
    .fil0 {fill:#FEFEFE}
   ]]>
  </style>
 </defs>
 <g id="Layer_x0020_1">
  <metadata id="CorelCorpID_0Corel-Layer"/>
  <g id="_1874134256">
   <path class="fil0" d="M745.52 1525.74c-2.38,23.5 -7.72,42.17 -11.22,64.98 -3.67,23.96 -4.83,39.98 -5.76,64.49 3.69,2.22 4.56,-2.43 0.87,5.89 11.16,20.8 16.9,28.16 28.78,41.75 18.43,8.2 36.04,16.34 62.41,9.15 12.02,-3.28 14.91,-5.91 23.34,-13.8 10.15,-9.5 10.86,-5.07 18.16,-17.31 2.3,-9.11 0.93,-3.41 3.23,-7.19 4.13,-6.77 6.15,-5.74 7.77,-13.02 0.47,-2.1 0.57,-8.74 0.56,-11.15 -0.03,-5.85 -0.84,-15.14 -0.07,-20.67 1.96,-14.17 2.26,-2.09 4.87,-15.55 1.44,-7.4 -0.07,-10.9 1.92,-18.61l2.46 -6.28c1.93,-6.07 1.4,-0.87 2.05,-9.64 0.89,-12.16 -2.25,-14.44 1.89,-27.47 7.16,-22.53 1.58,-14.12 4.96,-27.23 6.67,-25.93 2.76,5.28 4.24,-36.8l6.17 -34.8c3.05,-22.1 5.38,7.96 5.38,-56.22l5.48 314.72c-1.68,8.47 0.4,4.1 -3.86,8.97 7.06,29.54 5.84,198.03 3.33,235.41l0.74 353.12c8.9,3.34 8.57,6.36 10.5,9.7l13.4 18.48c1.31,1.26 5.42,4.56 6.45,5.08 7.83,3.96 5.24,-0.32 22.51,9.04l7.83 3.77c7.96,2.39 17,1.77 24.66,-1.71l19.8 -8.93c0.74,-0.23 1.54,-0.35 2.26,-0.6 10.96,-3.84 26.81,-22.89 31.01,-32.6 5.11,-11.8 1.5,-10.59 6.41,-25.72 7.5,-23.1 2.79,-63.74 2.79,-91.28 0,-120.65 0,-241.3 0,-361.95l11.35 0c0,62.24 -6.13,27.77 -5.78,64.63l0.67 52.49c3.56,17.14 0.98,-4.2 4.55,12.94 3.1,14.91 2.67,55.46 -1.41,67.99 -4.96,15.27 -3.94,6.09 -3.73,31.44 0.12,14.87 -2.28,37.78 2,50.95 2.02,6.22 2.37,-3.37 3.81,13.7l0 53.19c-2.09,24.85 -5.92,-5.11 -5.79,46.97 0.02,8.56 -0.95,27.41 0.57,34.73 3.17,15.26 2.81,-6.36 5.08,30.04 0.9,14.44 -0.22,5.79 3.52,14.01l11.35 17.65c8.06,12.14 19.44,18.41 32.42,25.25 0.96,0.51 3.76,2.12 5.56,3.07 18.13,9.56 36.12,2.22 51.45,-4.88 10.57,-4.89 12.85,-8.87 20.69,-16.8l4.39 -4.28c1.02,-1.12 3.93,-4.73 3.94,-4.75 0.32,-0.56 0.7,-1.31 0.99,-1.91 0.3,-0.61 0.57,-1.42 0.84,-2.07 16.56,-41.79 -0.26,-80.67 8.89,-117.54 2.02,-8.13 -6.2,-55.33 -1.52,-77.86 2.51,-12.07 5.48,-1.93 5.22,-29.9 -0.74,-78.97 -3.54,-36.82 -5.89,-64.74 -1.34,-15.91 -2.18,-58.47 1.49,-70.74 -4.1,-25.9 -0.88,-89.83 -0.87,-120.65 0,-38.11 1.59,-76.77 3.26,-114.77 -6.92,-8.51 -4.81,-60.03 -3.87,-70.74 1.58,-18 1.89,-7.11 4.02,-13.92 5.43,-17.35 -4.21,1.94 -3.93,-47.74l4.5 -124.84c1.86,-6.8 1.19,-12.03 1.19,-19.37l5.68 0c0,8.53 -0.94,27.43 0.57,34.73 3.56,17.21 1.08,-4.28 4.44,13.05 2.8,14.43 -2.45,3.39 4.38,24.89 3.7,11.67 1.45,12.56 1.82,24.6 0.72,23.82 5.06,3.62 5.83,32.21 0.75,27.72 4.13,7.39 5.76,29.35 0.39,5.37 -0.56,12.45 -0.16,17.82l4.51 15.93c2.86,11.12 -1.18,9.35 3.92,25.36 0.22,0.7 0.57,1.42 0.79,2.11 11.22,34.28 8.55,11.67 13.56,27.84 8.54,3.95 15.1,11.76 25.57,16.98 9.87,4.93 21.51,6.45 34.1,6.11 31.78,-0.85 33.92,-10.65 53.32,-26.09l11.82 -25.33c10.23,-24.92 1.69,-50.5 -2.24,-75.91l-9.02 -67.23 -3.63 -13.78c-0.21,-0.74 -0.51,-1.46 -0.71,-2.21 -7.51,-28.81 -7.32,-52.9 -8.2,-56.24l-4.49 -15.94c-0.72,-3.99 -0.15,-2.93 -1.3,-7.47 -0.19,-0.77 -0.46,-1.5 -0.68,-2.24 -0.21,-0.73 -0.53,-1.45 -0.76,-2.16l-3.62 -10.96c-0.24,-0.7 -0.48,-1.48 -0.72,-2.19l-7.07 -45.65c-6.92,-21.33 -9.48,-53.34 -10.54,-56.75 -3.35,-10.72 1.62,6.68 -1.7,-4.12l-13.92 -73.85c-0.23,-0.74 -0.42,-1.54 -0.66,-2.26l-12.52 -22.34c-0.35,-0.52 -0.77,-1.27 -1.11,-1.79 -0.34,-0.52 -0.74,-1.3 -1.08,-1.82l-32.96 -21.75c-0.67,-0.24 -1.37,-0.6 -2.04,-0.83 -2.01,-0.71 1.67,-1.13 -8.81,-2.63l-410.97 0.43c-13.46,2.81 -21.44,8.97 -32.83,15.99 -6,3.71 -8.31,4.03 -12.29,10.81l-2.94 5.78c-9.91,15.92 -6.1,6.08 -10.05,24.9l-7.78 30.2c-3.07,9.48 -1.52,21.57 -2.93,32.27 -1.79,13.62 -1.42,5.29 -2.64,9.04 -0.22,0.7 -0.59,1.39 -0.81,2.09l-4.15 19.24c-0.22,0.7 -0.59,1.4 -0.82,2.09 -4.89,15.08 -1.56,25.07 -7.11,45.6l-18.28 101.7c-0.05,12.96 -3.17,16.29 -5.02,24.23 -0.96,4.1 -0.72,5.89 -1.69,10.17 -0.18,0.81 -0.43,1.56 -0.62,2.35 -0.19,0.76 -0.52,1.48 -0.7,2.21 -0.23,0.93 -1.12,3.33 -1.26,4.25 -0.7,4.78 -1.69,3.19 0.49,9.65z"/>
   <path class="fil0" d="M1810.55 472.27c-10.46,8.41 -42.79,5.23 -56.74,6.88 -4.14,18.79 0.17,66.72 0.52,93.17l-0.97 211.98c2.35,27.98 5.78,-13.82 5.78,67.08 2.69,0.84 14,1.22 30.35,1.3 9.69,-1.19 19.45,-1.49 30.69,-1.49l74.19 0c45.2,-1.08 87.2,-2.46 99.37,-3.08 76.14,-3.88 158,-3.02 233.68,-4.48 79.33,-1.53 153.95,-4.97 232.91,-6.37l176 -3.21c13.18,-0.25 43.17,-4.97 53.94,0.54l0 -385.87c-25.19,9.45 -15.19,5.89 -56.78,5.89l-107.98 -0.11c-16.48,1.49 -7.22,1.85 -13.22,3.95 -21.13,7.38 -258.43,-2.06 -293.57,1.72 -17.25,1.85 -7.59,-2.63 -11.04,6.21l-11.36 0c-5.64,-14.49 -30.93,-1.07 -37.04,-0.14 -11.33,1.72 -38.02,0.14 -50.96,0.14 -25.52,0 -79.95,-3.21 -102.06,0.14 -20.54,3.12 8.77,5.94 -42.71,5.75l-152.99 -0zm-25.85 0c1.48,1.32 -3.33,2.61 5.59,2.02 6.93,-0.45 1.89,0.6 4.98,-2.02l-10.57 0z"/>
   <path class="fil0" d="M370.96 1696.41c-0.76,16.24 -11.54,40 -15.75,57.2 -4.96,20.27 -6.17,39.2 -10.72,59.54l-21.77 118.84c-5.12,14.18 -1.72,-3.08 -5.01,12.27 -0.73,3.39 -0.45,4.68 -1.02,7.77 -3.78,20.15 -6.49,21.97 -5.55,47.68 0.78,21.17 13.12,27.58 24.34,42.46 3.43,4.55 2.11,1.16 4.27,7.35l51.1 0c4.23,-10.85 0.8,-2.08 9.3,-8.02 16.5,-11.54 18.71,-30.51 23.59,-49.12 2.96,-11.3 -0.99,-16.12 5.66,-41.22 1.71,-6.46 1.02,-6.76 1.2,-13.46l3.7 -19.7c1.04,-3.22 0.65,1.84 1.83,-6.93 1.37,-10.3 -1.22,-19.82 2.12,-30.17l9.39 -25.59c0,63.83 -4.35,606.92 2.62,624.07 0.26,0.63 0.67,1.35 0.94,1.96l26.87 31.01c12.02,6.24 20.26,9.72 34.1,4.5l38.78 -33.59c0.29,-0.59 0.71,-1.31 0.99,-1.91l9.25 -349.42c0,33.78 -3.44,309.26 0.56,329l16.41 38.91c25.11,25.42 29.09,7.58 34.13,20.53l11.35 0c6.37,-16.36 16.73,7.65 37.88,-25.48l6.53 -13.83c5,-19.21 -2.67,-63.31 1.58,-83.7 3.46,-16.63 1.92,5.06 5.03,-15.5l-5.61 -58.64c0.06,-10.56 -1.19,-31.85 0.16,-41.08 1.84,-12.51 7.74,-11.79 3.76,-24.35 -1.3,-4.11 -5.31,-18.51 -2.78,-27.45 0.21,-0.76 0.57,-1.44 0.81,-2.16l3.94 -13.84c1.35,-14.47 -5.53,-24.46 -6.1,-38.04 -2.33,-56.33 0.21,-114.42 0.21,-170.88 0,-13.33 -0.68,-28.36 -0.22,-41.43 0.1,-2.73 0.16,-5.44 0.68,-8.12 1.92,-9.95 7.5,-14.29 10.9,-24.02l5.68 0c4.18,11.97 4.76,9.01 5.69,20.59 0.49,6.15 -0.36,4.28 1.24,10.49l4.58 36.52c2.78,21.1 5.53,-3.65 5.53,20.7 0.58,0.73 1.27,1.66 1.73,2.21l3.34 4.04c25.92,29.78 60.72,30.94 83.39,6.02 23.18,-25.49 10.6,-72.83 3.14,-107.34 -5.93,-27.4 -39.69,-211.1 -36.53,-222.19 -11.88,-13.59 -17.62,-20.95 -28.78,-41.75 -11.39,-0.37 -2.23,-2.44 -15.37,-5.31 -5.89,-1.28 -18.51,-0.63 -25.1,-0.59l-283.81 0.09c-11.2,1.51 -21.02,7.26 -28.18,17.87 -9.89,14.66 4.04,6.1 -8.8,11.48l2.83 11.77z"/>
   <path class="fil0" d="M1357.29 2049.53l4.42 -1.41c36.45,4.55 43.89,-8.14 55.52,-23.96l4.93 -5.61c3.5,-4.09 2.21,3.66 2.21,-4.33 2.24,-22.82 2.65,-62.43 11.15,-77.37 0.65,-26.86 5.68,14.27 5.68,-52.11l5.68 0c0,36.85 5.67,-0.24 5.67,79.45l-0.01 476.72c-0.04,5.87 -0.54,15.24 -0.1,20.7 0.67,8.26 0.14,3.71 1.98,9.72l2.4 6.34c5.64,17.1 12.65,31.77 30.46,36.11 4.24,1.03 6.31,0.08 10,1.4 7.98,2.88 3.08,-3.28 6.37,5.17l11.35 0c2.81,-7.2 -2.59,-1.98 12.81,-7.32l15.47 -7.51c10.52,-7.56 10.35,-13.91 12.92,-21.92 9.01,-28.07 4.22,-94.39 4.22,-133.93 0,-72.59 0,-145.17 0,-217.76l11.36 0 0 359c5.13,1.93 2.67,1.07 5.45,3.18l8.73 8.61c22.9,25.59 24.45,0.22 31.24,17.65l11.36 0c4.55,-11.7 -0.8,-3.4 13.86,-6.23 0.88,-0.17 1.68,-0.12 2.53,-0.32 0.8,-0.19 1.58,-0.29 2.33,-0.53l11.29 -8.9c0.57,-0.61 2.23,-2.37 2.79,-3l17.17 -38.11c3.23,-12.59 1.13,-576.02 1.13,-602.07l5.68 0c0,45.3 1.15,31.81 5.97,67.37l6.73 28.33c0.2,0.74 0.5,1.47 0.73,2.19 8.74,28.36 -0.11,27.49 4.63,45.23l6.49 13.87c0.29,0.6 0.65,1.37 0.94,1.97l2.76 5.97c8.33,16.31 22.14,23.3 39.69,23.65 4.35,0.08 16.13,0.19 19.98,-0.33 15.28,-2.08 -6.43,2.15 4.74,-0.97 0.72,-0.2 1.43,-0.5 2.12,-0.75 17.28,-6.15 19.42,-14.43 24.56,-21.63 4.33,-6.07 -2.32,-2.69 5.57,-6l0 -70.62c-6.93,-1.91 -3.38,-0.09 -8.5,-5.89 0.91,-29.4 -11.93,-71.77 -16.52,-103.21 -5.01,-34.31 -11.43,-73.69 -23.23,-102.78 3.95,-10.61 4.91,-28.23 1.06,-39.38l-7.62 -15.64c-0.29,-0.61 -0.61,-1.39 -0.91,-2 -9.43,-19.33 -23.31,-25.64 -43.49,-25.54l-295.42 0.17c-7.75,7.28 -15.47,6.25 -19.96,7.67l-11.82 25.33c-18.47,19.56 -12.06,13.83 -16.68,40.46 -2.77,15.97 -8.28,30.89 -11.27,47.24 -6.19,33.73 -10.9,66.53 -17.27,99.9 -5.48,28.73 -15.51,70.1 -18.61,97.91 -6.25,56.15 24.87,74 35.48,70.72 4.17,3.77 5.41,-3.14 1.79,5.08z"/>
   <path class="fil0" d="M1088.96 811.87c2.69,-32.91 18.54,-116.3 27.53,-146.07 5.46,-18.08 78.44,-82.22 86.25,-86.82 37.37,14.99 144.05,40.22 167.71,90.21 8.31,17.55 7.37,50.4 -15.33,60.98l-266.16 81.7zm-119 38.87c24.26,-12.07 59.89,-35.72 98.02,-29.8 -1.72,17.17 -21.77,20.46 -18.68,57.43 2.92,34.86 43.02,71.78 93.37,49.53 18.54,-8.19 40.24,-16.79 58.5,-20.71 5.06,1.85 127.06,-38.23 139.36,-41.84 19.5,-5.72 34.89,-6.46 55.24,-10.52 23.76,-0.08 -1.48,3.93 22.57,5.98 12.68,1.08 20.28,-2.07 32.25,1.91l22.58 6.02c20.24,6.7 88.68,6.34 103.74,3.17l8.4 -3.06c10.37,-3.87 27.87,-6.24 34.44,-14.04 7.89,-7.91 21.56,-17.44 31,-20.5l1.1 20.88c-0.12,-12.44 -1.14,-13.57 5.08,-23.8 0,-22.62 1.92,-55.41 0.1,-76.75 -1.49,-17.59 -1.74,-7.19 -3.91,-13.82l0.11 -19.34c2.44,-9.44 -2.09,-16.41 -2.13,-28.35 -0.17,-52 0.15,-104.11 0.15,-156.14 -21.03,0 -82.28,3.51 -101.66,-0.56l-55.38 -22.06c-0.77,-0.41 -2.93,-1.63 -3.72,-2.03l-7.98 -3.5c-0.7,-0.24 -1.47,-0.44 -2.19,-0.67 -4.92,-1.59 -3.81,-0.71 -8.78,-2.67 -0.65,-0.26 -1.39,-0.57 -2.02,-0.85l-85.07 -35.4c-0.63,-0.28 -1.37,-0.59 -2.02,-0.85 -0.67,-0.26 -1.42,-0.52 -2.1,-0.77l-17.15 -5.76c-0.7,-0.24 -1.45,-0.47 -2.16,-0.7l-65.48 -26.29c-0.85,-0.33 -3.16,-1.4 -3.96,-1.78l-24.43 -9.99c-12.19,-4.81 -18.7,-10.73 -33.26,-10.12 -13.85,0.59 -12.22,0.95 -21.82,7.15 -42.52,27.48 -70.25,74.11 -102.28,97.03l-9.35 7.96c-0.41,0.44 -0.91,1.15 -1.31,1.58l-19.25 18.31c-13.05,9.34 -23.44,23.19 -34.74,34.61l-33.43 65.41c-2.07,7.07 -1.49,9.97 -3.4,17.07l-27.19 130.72c-0.34,11.51 -0.33,22.37 -4.63,30.86l-4.03 12.03c0,0.61 0.47,2.24 0.48,2.85l-1.54 8.15c-3.37,10.33 -0.56,-3.39 -1.49,3.99z"/>
   <path class="fil0" d="M1901.08 2037.76l5.68 0 0 76.51 -5.68 0 0 -76.51zm-139.09 -300.15c11.8,29.09 18.22,68.46 23.23,102.78 4.58,31.44 17.43,73.81 16.52,103.21 11.81,-3.2 8.5,3.71 8.5,-17.66 10.85,-4.54 2.67,-7.99 6.94,-25.17l3.23 -8.43c3.77,-13.96 -1.65,-26.04 3.16,-40.86 2.26,-6.95 3.7,0.83 3.7,-25.59l5.68 0c0,12.1 0.76,26.78 0.15,38.53 -1.05,20.15 -5.58,7.2 -1.55,24.29l-1.15 125.83c0.67,3.07 2.06,-5.92 2.11,8.34 0.05,15.03 -4.98,-8.8 -5.25,56.09 -0.15,37.4 -3.38,31.51 5.69,35.3l0 11.77c-0.06,0.03 -9.03,-0.89 -5.43,16.74 0.99,4.83 12.14,18.08 1.73,50.04 -2.02,6.17 -1.3,0.98 -2.11,9.64 -0.33,3.61 -0.01,19.67 0.69,23.04 1.66,8.03 6.27,28.45 12.08,34.57 3.37,3.54 7.19,4.83 10.07,13.1l34.06 0c2.6,-7.43 9.85,-14.96 17.04,-17.66l5.68 -64.74c0,25.77 -5.75,48.21 11.3,67.73 4.41,5.05 1.47,0.74 5.78,5.79 6.69,7.85 2.05,-1.39 5.63,8.87l34.06 0c2.6,-7.43 9.86,-14.96 17.04,-17.66l5.68 -441.4c0,62.39 2.02,26.99 5.78,64.63 2.43,24.33 2.69,0.31 5.43,20.85 0.93,6.98 -0.59,16.28 0.24,23.3 1.81,15.37 -1.95,-6.27 0.93,4.93l10.07 18.98c0.01,0.02 5.8,5.31 6.07,5.47 0.56,0.33 1.31,0.67 1.92,0.96l6.5 2.09c9.98,4.1 4.06,-5.47 8.48,5.91l11.36 0c4.74,-12.18 7.58,-4.35 20.94,-13.59 10.48,-7.26 15.4,-25.83 12.67,-38.68l-4.45 -13.26c-1.7,-7.42 -0.58,-7.31 -2.85,-14.7 -1.87,-6.07 -2.46,2.78 -3.68,-13.84 -1.81,-24.74 0.65,-24.6 -8.49,-52.99 -7.04,-21.87 2.06,-9.31 -6.46,-37.45 -2.98,-9.85 -0.8,-6.26 -1.9,-15.69 -2.07,-17.83 3.5,-7.78 -5.78,-11.66l0 -35.31c-7.8,-2.93 -19.93,-15.58 -22.71,-23.54l-227.1 0c-6.09,17.43 -6.94,0.48 -17,26.52 -3.99,10.31 5.29,4.19 -5.71,8.79l0 11.77 -8.5 0z"/>
   <path class="fil0" d="M322.71 1932l21.77 -118.84c4.55,-20.34 5.77,-39.27 10.72,-59.54 4.2,-17.2 14.99,-40.96 15.75,-57.2 -10.85,2.94 -8.09,-7.2 -8.5,11.77l-5.68 0c-2.79,-8 -8.64,-11.61 -16.76,-15 -19.88,-8.29 -84.6,2.48 -111.96,-4.81l-9.41 0c-25.75,6.87 -85.07,-3.61 -102.65,5.64 -18.7,9.84 -3.59,13.75 -20.39,20.06l0 35.31c-7.74,3.24 -2.73,-1.8 -5.12,6.47 -1.01,3.51 -0.44,7.29 -0.77,10.97 -1.39,15.64 -2.37,5.55 -4.88,18.49 -2.94,15.16 3.27,6.67 -4.19,30.96 -2.03,6.61 -0.7,2.2 -2.07,9.62l-5.11 18.24c-1.45,7.34 0.05,15.71 -0.48,23.04l-6.43 28.65c-2.88,8.19 3.16,3.16 -5.01,6.57l0 29.43c6.09,2.29 4.76,1.7 8.26,6.15l5.56 8.95c0.41,0.43 1.02,1.03 1.47,1.42 0.64,0.55 3.47,2.26 3.49,2.27 15.35,9.15 10.88,-0.7 15.29,10.63l11.35 0c3.44,-8.83 -1.98,0.46 4.15,-4.53l5.13 -3.51c0.5,-0.36 1.26,-0.76 1.75,-1.13l10.51 -9.71c10.96,-11.95 4.16,-9.93 8.93,-26.05l3.9 -22.44c2.86,-20.74 1.35,1.15 4.81,-15.61 1.67,-8.04 0.57,-31.02 0.57,-40.61l5.68 344.29c0,15.46 -2.44,47.4 1.74,60 7.31,22.06 15.87,16.61 20.97,31.23l34.07 0 6.85 -10.56c1.2,-1.24 4.29,-3.69 4.69,-3.98 2.53,-1.8 0.67,-1.32 5.5,-3.13l5.68 -241.3c0,28.31 -4.51,219.51 3.47,237.7 5.7,12.99 14.52,19.46 28,21.33 0.03,0.01 10.84,0.01 10.87,0 13.89,-1.93 -4.5,1.61 4.85,-1.08l6.11 -2.59c9.23,-4.37 12.52,-7.35 17.04,-17.66 5.32,-12.15 3.58,-16.04 3.48,-34.65 -0.76,-130.36 -0.01,-260.99 -0.01,-391.38l5.68 0c0,13.49 -1.98,32.65 1.97,45.04 7.56,23.72 -0.22,9.57 7.42,33.51 3.04,9.53 1.97,16.28 1.97,27.57z"/>
   <path class="fil0" d="M776.92 2114.27l5.68 0 0 76.51 -5.68 0 0 -76.51zm0 -64.74l5.68 0 0 17.66 -5.68 0 0 -17.66zm-18.74 -346.68c-3.17,11.09 30.6,194.79 36.53,222.19 7.46,34.51 20.04,81.85 -3.14,107.34 -22.67,24.92 -57.47,23.76 -83.39,-6.02l-3.34 -4.04c-0.46,-0.56 -1.15,-1.48 -1.73,-2.21l2.56 229.8c0.25,0.65 0.63,1.39 0.9,2.01l23.15 20.25c13.3,3.83 29.37,-1.09 37.28,-9.28 6.67,-6.92 0.73,0.92 5.52,-9l10.08 -45.46c0,12.55 -1.87,28.58 1.73,39.4l1.76 4.07c0.28,0.61 0.67,1.35 0.97,1.94 7.21,14.22 8.97,9.02 12.57,19.33l34.07 0c3.39,-9.71 8.67,-10.43 14.01,-17.84l5.2 -9.31c7.66,-16.95 3.49,-146.19 3.49,-170 0,-73.57 0,-147.13 0,-220.7l5.68 0c0,5.63 -0.57,11.58 0.56,17.07 3.93,18.97 3.63,-14.08 4.96,33.11 0.09,3.25 0.08,4.93 0.69,8.11l19.86 38.28c8.9,4.57 13.66,3.48 24.29,3.48 2.51,-37.39 3.72,-205.87 -3.33,-235.41l-7.3 -17.66c-3,-7.71 -0.35,-2.88 -7.3,-7.15l-32.44 -4.62 0 -9.63c-7.3,12.24 -8.01,7.8 -18.16,17.31 -8.43,7.89 -11.32,10.52 -23.34,13.8 -26.37,7.2 -43.98,-0.95 -62.41,-9.15z"/>
   <path class="fil0" d="M969.96 850.74l-7.33 5.25c-0.45,0.41 -1.05,1.05 -1.48,1.5 -15.21,15.43 -32.7,37.46 -40.32,58.21l-7 22.17c-0.96,5.3 -0.25,8.7 -0.94,13.74 -2.83,20.64 -3.31,-3.06 -5.52,20.83 -1.69,18.24 0.28,20.17 3.81,31.58l2.08 15.5c1.14,12.74 3.98,14.41 10.33,27.55 18.59,38.48 11.59,16.91 21.69,33.44 0.33,0.54 0.69,1.33 1.01,1.9 1.83,3.24 0.74,2.1 2.92,5.8l20.52 16.97c7.08,5.19 8.57,11.56 22.85,17.52l37.08 14.53c7.76,1.06 66.12,1.5 74.81,-1.74l11.15 -6.11c21.02,-10.2 -1.87,5.09 28.53,-14.56l57.71 -63.77c11.18,-23.07 9.6,-31.98 15.14,-49.04 0.22,-0.69 0.62,-1.37 0.84,-2.07l2.05 -9.66c0.65,-7.76 -0.11,-20.19 -0.11,-28.49 -0.47,-0.63 -1.01,-1.52 -1.27,-2 -8.83,-16.07 -11.49,-39.71 -17.32,-52.59 -18.26,3.92 -39.96,12.52 -58.5,20.71 -50.36,22.24 -90.45,-14.67 -93.37,-49.53 -3.09,-36.96 16.95,-40.26 18.68,-57.43 -38.13,-5.93 -73.76,17.73 -98.02,29.8z"/>
   <path class="fil0" d="M1270.87 1691.22c-16.01,-1.53 -21.55,-1.08 -35.37,9.72 -10.95,8.55 1.64,2.86 -10.05,7.24l-7.58 11.77c-1.66,38 -3.26,76.66 -3.26,114.77 -0.01,30.82 -3.23,94.75 0.87,120.65 16.29,1.18 6.82,-2.86 9.96,5.88l39.75 -23.54 0 -35.31c9.41,-3.94 4.46,1.9 5.84,-14.54 2.66,-31.8 5.51,6.59 5.51,-61.96l6.13 417.38c2.24,11.9 -0.53,0.57 3.01,8.65 6.59,15.04 19.28,22.76 36.2,21.61 7.8,-0.53 18.91,-5.11 24.23,-10.64 3.81,-3.95 1.89,-2 4.56,-7.05l3.63 -8.01c2,-6.12 1.3,-2.12 1.87,-9.83 3.97,-54.35 -7.1,-138.79 1.12,-188.47 3.63,-8.22 2.38,-1.31 -1.79,-5.08 -10.6,3.28 -41.73,-14.57 -35.48,-70.72 3.09,-27.8 13.12,-69.18 18.61,-97.91 6.37,-33.37 11.08,-66.17 17.27,-99.9 3,-16.35 8.5,-31.27 11.27,-47.24 4.62,-26.63 -1.79,-20.91 16.68,-40.46 -19.4,15.44 -21.55,25.25 -53.32,26.09 -12.59,0.33 -24.22,-1.19 -34.1,-6.11 -10.46,-5.22 -17.03,-13.03 -25.57,-16.98z"/>
   <path class="fil0" d="M527.1 1399.2l-17.71 8.13c-0.89,0.28 -3.67,0.87 -4.54,1.18 -0.7,0.24 -1.49,0.43 -2.15,0.7l-11.2 9c-5.58,6.02 -8.31,8.99 -14.09,14.82 -3.72,3.76 -4.84,4.46 -7.17,7.28l-22.07 50.7c-3.48,17.16 1.34,60.27 10.63,73.15l18.61 24.85c3.26,3.3 4.59,4.74 7.11,7.35 13.72,14.28 9.55,12.42 25.49,20.65 25.66,13.26 17.67,8.34 59.73,8.83 25.09,0.29 18.62,0.83 36.86,-8.87 0.57,-0.31 1.31,-0.69 1.89,-0.99l13.36 -6.75c0.78,-0.41 3.02,-1.54 3.76,-1.99 4.31,-2.58 1.02,-0.13 5.12,-3.52l9.98 -10.25c13.85,-14.25 6.86,-9.37 15.78,-21.9l5.69 -8.81c8.93,-21.85 4.28,-20.18 7.56,-36.37 2.3,-11.41 7.32,-8.6 3.22,-21.94 -8.88,-28.92 1.15,-16.31 -9.49,-37.69l-3.81 -7.81c-3.7,-7.61 -18.77,-32.09 -26.63,-37.13l-30.16 -18.76c-10.41,-5.57 -9.73,-6.57 -21.61,-7.02 -9.39,-0.36 -46.87,-1.63 -54.16,3.16z"/>
   <path class="fil0" d="M1532.04 1399.2c-0.6,0.39 -1.61,0.1 -1.89,0.98 -0.29,0.88 -1.49,0.77 -1.89,0.98 -0.54,0.28 -3.04,1.58 -3.78,1.96l-27.93 15.19c-14.93,12.33 -25.56,27.06 -33.69,44.53 -10.06,21.61 -15.28,50.61 -7.52,74.72 6.06,18.81 0.46,13.18 12.17,31.52l21.96 27.27c2.64,2.75 3.65,3.92 7,7.45l36.04 21.5c3.51,0.72 9.8,0.66 13.57,0.65 15.72,-0.07 39.85,3.48 54.32,-2.89l7.41 -4.09c0.57,-0.31 1.3,-0.7 1.86,-1.01l40.31 -28.84 26.2 -55.24c4.35,-12.5 5.07,-31.07 0.82,-43.63l-23.09 -52.57 -17.77 -16.89c-0.54,-0.33 -1.31,-0.69 -1.86,-1.02 -0.55,-0.33 -1.31,-0.69 -1.85,-1.03l-28.29 -17.76c-0.57,-0.3 -1.26,-0.75 -1.84,-1.04 -13.41,-6.61 -29.63,-3.59 -44.75,-3.76 -3.75,-0.04 -10.84,-0.36 -14.24,-0.05 -6.19,0.56 0.5,-0.48 -5.01,0.69 -6.13,1.31 -2.81,0.11 -6.24,2.35z"/>
   <path class="fil0" d="M1355.12 730.17c22.7,-10.58 23.64,-43.43 15.33,-60.98 -23.66,-49.98 -130.35,-75.22 -167.71,-90.21 -7.81,4.6 -80.79,68.74 -86.25,86.82 -8.98,29.78 -24.84,113.16 -27.53,146.07l266.16 -81.7z"/>
   <path class="fil0" d="M1619.76 854.81c3.15,0 8.59,-0.31 11.53,0.09 15.59,2.13 -6.43,-2.2 4.78,0.97l30.42 15.53c0.11,0.03 14.82,-0.01 28.44,1.73 12.19,-5.07 25.27,-8.84 39.17,-11.04l25.88 -2.8c10.66,-3.43 20.06,-5.45 29.51,-6.61 -16.34,-0.08 -27.66,-0.46 -30.35,-1.3 -5.65,4.33 -15.54,3.64 -22.61,3.56 -8.57,-0.1 -17.09,-0.13 -25.65,-0.13 -17.98,0 -35.96,0 -53.94,0l0 -23.41c-6.22,10.22 -5.2,11.35 -5.08,23.8l-1.1 -20.88c-9.44,3.06 -23.11,12.59 -31,20.5zm953.82 5.21c33.21,-11.2 67.44,-5.06 97.53,0l14.33 0 4.83 -20.96 0 -4.47c-10.76,-5.5 -40.76,-0.79 -53.94,-0.54l-176 3.21c-78.95,1.4 -153.57,4.84 -232.91,6.37 -75.69,1.46 -157.54,0.6 -233.68,4.48 -12.17,0.62 -54.17,2 -99.37,3.08l147.24 0 102.63 0.24c14.91,0.78 9.15,2.3 24.38,0.69 20.98,-2.2 154.5,-0.93 188.1,-0.93 30.14,0 122.19,-1.65 145.7,2.08l27.3 6.75 43.87 0z"/>
   <path class="fil0" d="M254.58 1513.97l-51.1 0c-2.28,6.52 -1.87,5.89 -7.52,9.86 -4.11,2.87 -1.87,0.72 -5.67,2.96l-18.16 16.48c-8.2,8.61 -6.85,8.68 -12.23,19.69 -7.17,14.69 -6.56,7.88 -7.68,21.52 -1.64,19.85 0.1,24.23 7.7,39.38l1.91 3.9c11.27,23.09 5.22,19.19 20.71,28.56l15.04 10.9c0.55,0.32 1.27,0.73 1.83,1.04l3.8 1.95c14.12,6.06 57.73,5.35 74.24,-11.87l2.74 -3.04c12.39,-13.17 8.4,-5.72 15.2,-19.56l6.72 -13.64c6.61,-14.38 5.41,-45.55 0,-57.33 -0.37,-0.82 -1.6,-3.02 -2,-3.81l-1.95 -3.87c-0.29,-0.6 -0.65,-1.37 -0.94,-1.97 -5.11,-10.64 -9.94,-18.81 -20.11,-26.24l-16.88 -8.99c-5.99,-4.33 -2.55,2.04 -5.65,-5.91z"/>
   <path class="fil0" d="M1849.98 1655.22c18.25,0.42 5.2,0.61 17.33,8.52l14.52 5.55c11.54,4.13 38.91,7.23 53.57,0.92 19.53,-8.4 9.89,-14.57 28.12,-14.98 0.33,-14.93 8.18,-13.47 14.46,-29.16l1.56 -4.26c1.07,-4.11 0.83,-3.21 1.15,-7.64l-4.58 -57.32c-5.47,-11 -11.41,-15.91 -19.56,-23.87l-28.85 -17.18c-0.68,-0.25 -1.39,-0.56 -2.11,-0.76l-65.7 15.11 -23.44 28.67c-4.24,9.79 -9.78,33.41 -7.45,41.2l5.78 23.87c0.29,0.91 1.31,3.31 1.68,4.14l5.33 9.18c9.66,13.3 7.8,0.2 8.18,18.01z"/>
   <path class="fil0" d="M1361.71 2048.12l0.46 195.15 9.59 19.49c8.24,11.35 2.75,-1.71 6.99,10.41l34.06 0c2.85,-7.32 -0.5,-0.96 5.87,-5.69 0.47,-0.35 1.27,-0.76 1.76,-1.11 0.5,-0.36 1.29,-0.72 1.78,-1.09 7.93,-6.02 10.86,-11.44 12.85,-22l0.46 -306.42c-8.5,14.94 -8.92,54.55 -11.15,77.37 0,7.98 1.29,0.23 -2.21,4.33l-4.93 5.61c-11.63,15.82 -19.07,28.51 -55.52,23.96z"/>
   <path class="fil0" d="M2690.27 860.02l0 -20.96 -4.83 20.96 4.83 0zm-19.16 0c-30.09,-5.06 -64.32,-11.2 -97.53,0l97.53 0z"/>
   <path class="fil0" d="M1201.18 907.19c5.83,12.88 8.49,36.52 17.32,52.59 0.26,0.47 0.8,1.37 1.27,2 18.58,-2.61 21.91,2.54 38.03,-5.74l7.57 -3.93c11.77,-6.19 7.76,-4.49 14.52,-14.37l19.37 -41.72c8.63,24.7 54.21,18.18 60.72,15.85l7.65 -3.83c7.71,-4.41 0.88,0.43 6.96,-4.56l15.18 -28.24c0.85,-5.16 -0.07,-5.02 1.48,-10.54l3.14 -7.47c0.31,-0.67 0.93,-1.59 1.39,-2.4 -20.35,4.06 -35.74,4.8 -55.24,10.52 -12.3,3.61 -134.3,43.69 -139.36,41.84z"/>
   <path class="fil0" d="M1395.67 1662.89c4.49,-1.43 12.21,-0.39 19.96,-7.67 -2.68,-16.94 7.58,-13.46 12.73,-22.13l6.63 -19.62c0.81,-4.27 0.7,-9.57 0.71,-14 0.02,-6.35 0.41,-20.65 -0.63,-26.17l-5 -12.47c-0.31,-0.56 -0.73,-1.31 -1.06,-1.85l-12.46 -19.45c-0.43,-0.72 -4.23,-5.99 -4.9,-6.69 -0.58,-0.61 -2.34,-2.25 -2.99,-2.78l-16.89 -9c-3.75,-1.08 -2.59,-1.13 -7.33,-1.31l9.02 67.23c3.93,25.42 12.47,50.99 2.24,75.91z"/>
   <path class="fil0" d="M728.53 1655.22c0.93,-24.51 2.09,-40.53 5.76,-64.49 3.5,-22.81 8.84,-41.49 11.22,-64.98l-11.18 0c-1.24,1.35 -4.35,4.51 -5.69,5.87l-18.65 27.76c-1.23,3.75 -1.39,5.31 -2.62,9.04l-2.41 6.34c-4.22,13.74 -2.85,28.18 1.6,41.55l4.26 13.24c0.29,0.59 0.71,1.32 1.03,1.87l16.67 23.79z"/>
   <path class="fil0" d="M1754.33 572.32c-0.35,-26.45 -4.66,-74.38 -0.52,-93.17 13.94,-1.65 46.28,1.53 56.74,-6.88l-15.28 0c-3.09,2.62 1.96,1.57 -4.98,2.02 -8.93,0.58 -4.11,-0.7 -5.59,-2.02l-36.91 0 0 100.05 6.54 0z"/>
  </g>
 </g>
</svg>
