<?xml version="1.0" encoding="UTF-8"?>
<!DOCTYPE svg PUBLIC "-//W3C//DTD SVG 1.1//EN" "http://www.w3.org/Graphics/SVG/1.1/DTD/svg11.dtd">
<!-- Creator: CorelDRAW 2020 (64-Bit) -->
<svg xmlns="http://www.w3.org/2000/svg" xml:space="preserve" width="2.75591in" height="2.93307in" version="1.1" style="shape-rendering:geometricPrecision; text-rendering:geometricPrecision; image-rendering:optimizeQuality; fill-rule:evenodd; clip-rule:evenodd"
viewBox="0 0 2755.91 2933.07"
 xmlns:xlink="http://www.w3.org/1999/xlink"
 xmlns:xodm="http://www.corel.com/coreldraw/odm/2003">
 <defs>
  <style type="text/css">
   <![CDATA[
    .fil0 {fill:#FEFEFE}
   ]]>
  </style>
 </defs>
 <g id="Layer_x0020_1">
  <metadata id="CorelCorpID_0Corel-Layer"/>
  <g id="_3227612624">
   <path class="fil0" d="M1487.05 341.02c-16.92,0 -421.82,-3.57 -438.98,-0.08 -10.04,2.04 -6.33,-1.97 -9.82,6.68 -8.88,3.58 -3.18,-1.96 -6.07,7.13 -0.52,1.63 -0.89,10.22 -0.9,12.3 -0.11,28.4 -2.94,172.69 0.28,188.55 2.04,10.03 -1.97,6.33 6.68,9.82 4.07,10.08 -3.57,7.08 32.96,6.64 212.25,-2.6 424.69,-0.04 636.94,-0.04 225.5,0 451,0 676.5,0l0 1122c-436.65,0 -873.46,3.37 -1310.11,-0.02 -5.95,-0.04 -14.74,-0.63 -20.21,-0.41 -19.06,0.76 -12.33,-2.24 -16.07,7.03 -8.88,3.58 -3.18,-1.96 -6.07,7.13 -0.52,1.63 -0.89,10.22 -0.9,12.3 -0.11,28.4 -2.94,172.69 0.28,188.55 2.04,10.04 -1.97,6.33 6.68,9.82 3.74,9.27 -2.98,6.26 16.07,7.03 58.09,2.33 117.2,-0.43 175.33,-0.43 -0.27,0.76 -1.06,0.94 -1.21,2.09l-117.19 463.61c-0.7,3.5 -0.39,4.7 -1.29,8.61l-8.09 31.51c-0.31,1.04 -1.52,3.73 -1.83,4.77 -2.42,7.96 -1.41,8.42 -3.28,16.52l-34.49 137.11c-1.24,4.06 -0.6,0.7 -1.83,4.76 -1.39,4.58 -0.73,1.61 -1.99,7.91l-21.21 94.77c-2.55,13.57 -1.34,9.21 0.61,23.67 1.37,10.24 -0.3,20.93 3.41,29.97l29.81 42.79c2.3,2.22 0.79,1.37 5.12,4.78 4.76,3.74 0.97,1.06 5.95,3.94l37.36 18.74c4.63,1.64 1.11,1.05 7.94,1.95 4.56,0.6 14.62,0.22 19.71,0.22l62.37 -16.96c0.42,-0.3 3.38,-2.94 5.45,-4.45l12.54 -7.26c9.5,-6.48 6.39,-7.61 11.15,-15.24 0.38,-0.61 0.9,-1.42 1.3,-2.01 0.09,-0.13 3.63,-4.44 4.41,-5.49 0.41,-0.56 1.04,-1.29 1.44,-1.86l19.23 -50.07c0.24,-0.81 0.66,-1.59 0.92,-2.38l28.8 -113.09c0.9,-3.91 0.59,-5.12 1.29,-8.61l1.99 -7.91c3.71,-12.19 -1.88,7.43 1.83,-4.77l47.69 -189.91c0.9,-3.91 0.59,-5.11 1.29,-8.61l26.4 -105.6c1.26,-6.31 0.6,-3.33 1.99,-7.91l72.6 -290.4c0.31,-1.04 1.52,-3.73 1.83,-4.77 2.42,-7.94 1.4,-8.52 3.28,-16.52 0.21,-0.9 0.43,-1.76 0.68,-2.63 0.23,-0.83 0.58,-1.65 0.84,-2.46l4.19 -28.81 277.2 0c0,19.96 9.47,39.68 13.2,59.4 0.19,1.01 0.2,1.9 0.4,2.9l107.59 430.31c0.32,1.04 1.52,3.73 1.83,4.77l41.59 166.31c1.61,8.06 0.43,5.98 2.78,13.72l2.66 7.24c1.4,5.18 0.69,3.75 1.56,8.34l37.18 141.02c5.1,11.41 13.63,18.72 22.22,27.28 3.46,3.44 6.4,6.41 9.85,9.95 24.05,24.7 69.82,34.41 102.56,23.25l24.8 -11.5c16.44,-12.12 32.59,-21.28 42.23,-40.27 0.34,-0.67 0.72,-1.56 1.06,-2.24l8.61 -17.79c12.09,-31.8 9.41,-46.52 0.73,-78.65l-40.43 -160.88c-0.31,-1.04 -1.52,-3.72 -1.83,-4.76l-15.19 -60.71c-0.7,-3.5 -0.39,-4.7 -1.29,-8.61l-115.52 -458.68c-2.41,-7.94 -1.4,-8.52 -3.28,-16.52 -0.21,-0.9 -0.43,-1.76 -0.67,-2.63l-5.02 -31.28 485.1 0c20.24,0.01 36.69,-0.48 54.25,-5.15l26.2 -3.5c0.78,-0.26 1.6,-0.66 2.34,-0.96l4.43 -2.18c4.22,-2.2 3.15,-1.61 6.22,-3.68l13.34 -9.76c0.63,-0.38 1.52,-0.78 2.15,-1.15 0.63,-0.37 1.53,-0.76 2.16,-1.14l41.84 -67.06c7.24,-22.76 1.37,-1133.58 2.18,-1364.03 0.04,-12.76 1.61,-25.52 -2.18,-37.42 -0.25,-0.8 -0.67,-1.59 -0.93,-2.37l-4.15 -12.35c-0.27,-0.82 -0.49,-1.72 -0.77,-2.54 -9.6,-28.25 -42.29,-55.67 -70.37,-64.93l-43.7 -5.8c-260.52,1.56 -521.54,0.01 -782.11,0.01 0,-7.37 0.75,-18.97 -0.62,-25.78 -6.86,-34.08 -32.22,-65.91 -72.64,-79.17 -0.83,-0.27 -1.74,-0.45 -2.57,-0.72l-7.42 -2.48c-12.65,-4.49 -39.03,-6.38 -53.17,-1.88l-30.89 12.01c-0.61,0.37 -1.43,0.89 -2.02,1.28 -12.45,8.28 -21.83,11.91 -28.79,24.02l-5 8.2c-3.1,4.28 -4.31,5.14 -5.79,7.42l-6.75 13.05c-0.34,0.67 -0.78,1.52 -1.12,2.18 -7.33,14.2 -7.62,25.25 -7.62,41.87z"/>
   <path class="fil0" d="M345.26 1017.52c-10.71,6.79 -30.03,3.02 -39.79,6.41l-19.61 6.79c-0.79,0.27 -1.63,0.61 -2.43,0.88l-15.09 4.71c-0.98,0.37 -3.69,1.56 -4.62,1.98l-27.43 15.46c-12.03,10.81 -41.96,28.87 -54.93,50.68l-17.67 28.54c-0.33,0.68 -0.74,1.54 -1.07,2.22l-20.47 48.83c-13.17,50.3 -8.11,89.24 -8.11,143.69 0,111.46 -3.76,1369.87 0.09,1399.1 1.67,12.64 1.87,8.11 6.39,16.71l14.3 28.59c6.41,11.09 22.69,25.34 27.61,28.49l41.89 20.81c4.65,1.29 3.56,0.96 8.56,1.35 15.18,1.18 36.02,0.36 48.9,-4.21l43.45 -19.25c11.72,-8.38 22.63,-21.15 28.91,-33.8 0.34,-0.68 0.73,-1.55 1.06,-2.23l14.26 -35.24c7.45,-23.42 -3.43,-54.4 3.56,-78.94l3.83 -9.37c8.39,-29.48 -4.2,-67.26 5.69,-96.61 9.87,-29.3 -5.28,-65.11 4.59,-94.41l2.92 -6.98c6.87,-24.15 -0.86,-56.96 1.26,-81.24 1.78,-20.45 6.78,-4.53 6.72,-59.28 -0.01,-10.95 -0.4,-22.4 -0.25,-33.25 0.09,-6.61 -0.09,-8.81 1.63,-14.87 0.23,-0.82 0.65,-1.6 0.91,-2.39 0.26,-0.77 0.74,-1.54 1.01,-2.29 7.33,-20.56 1.03,-61.35 3.17,-85.93 0.59,-6.69 -0.5,0.11 0.78,-5.82 3.43,-15.92 6.22,-18.13 6.01,-36.89 -0.21,-19.89 -2.8,-52.45 3.23,-69.36 1.08,-3.02 0.48,2.78 2.65,-7.26 1.04,-4.83 0.86,-10.65 0.85,-15.65 -0.06,-21.63 -3.04,-45.43 3.84,-65.46 1.03,-2.98 1.22,-4.01 2.37,-7.54 0.27,-0.84 0.42,-1.78 0.7,-2.6 3.15,-9.03 8.81,-14.6 16.91,-19.39 13.12,-7.76 32.04,-11.39 50.71,-6.33l11.36 5.14c34.51,19 26.02,69.3 25.93,102.77l1.57 18.23c11.27,39.6 -1.28,76.23 8.52,103.68l1.92 4.69c7.54,26.5 -4.46,64.21 2.77,89.63 6.13,21.57 5.24,33.87 5.22,57.48 -0.06,54.74 4.94,38.83 6.72,59.28 1.68,19.29 -0.65,46.16 -0.37,66.37l3.54 19.56c1.07,3.01 0.48,-2.78 2.65,7.26 3.96,18.38 0.8,43.21 0.59,62.11 -0.25,23.02 6.97,36.94 6.73,59.27 -0.12,11.03 -0.01,22.05 -0.08,33.08 -0.06,10.27 -1.3,22.11 1.4,31.6l5.41 27.59c-0.06,19.89 -2.84,39.95 3.87,58.83 0.27,0.78 0.63,1.61 0.91,2.39l15.82 36.98c7.33,12.67 21.14,25.39 34.07,31.93l19.91 9.8c13.14,6.83 20.04,9.02 37.31,8.89 8.22,-0.06 25.48,0.76 32.58,-0.66 0.93,-0.19 1.77,-0.41 2.64,-0.66 0.83,-0.23 1.66,-0.57 2.45,-0.85l4.49 -2.11c22.77,-10.88 50.34,-27.04 61.35,-44.25l13.96 -28.93c7.56,-21.73 8.09,-28.8 8.04,-57.97l0 -1303.5c-0,-17.7 -2.72,-36.28 3.11,-52.99 0.27,-0.77 0.67,-1.58 0.95,-2.35l19.93 -39.47c2.76,-4.44 1.32,-3.1 3.39,-6.51l51.01 -31.48c30.67,-10.11 74,-5.79 109.71,-5.79l488.46 0.06c4.48,0.05 12.49,0.41 16.59,0.09 13,-1 18.09,-5.9 28.45,-11.15l25.87 -13.74c0.76,-0.59 2.74,-2.5 3.44,-3.15l30.45 -48.74c0.27,-0.78 0.67,-1.59 0.93,-2.37 7.31,-21.44 6.1,-61.07 -4.53,-81.69l-10.51 -19.19c-8.59,-10.79 -22.74,-25.19 -34.51,-31.49 -0.88,-0.47 -3.55,-1.69 -4.46,-2.14l-17.67 -8.74c-8.42,-2.83 -5.77,-0.99 -13.93,-2.57 -0.98,-0.19 -1.85,-0.28 -2.8,-0.5l-7.44 -2.46c-0.78,-0.26 -1.54,-0.72 -2.33,-0.97 -13.29,-4.27 -32.34,-2.27 -47.24,-2.26l-1105.49 3.3z"/>
   <path class="fil0" d="M424.45 119.92c-4.23,2.68 0.24,1.23 -7.37,2.52l-89.55 25.94 -50.66 31.84c-17.96,11.45 -32.18,27.06 -47.11,41.98l-26.15 26.66c-0.4,0.58 -0.88,1.43 -1.27,2.04 -0.39,0.61 -0.8,1.5 -1.18,2.12l-20.92 31.88c-0.58,0.78 -2.39,2.86 -2.94,3.65l-16.15 33.35c-1.1,3.52 -0.83,3.91 -2.14,7.76l-9.58 20.12c-0.28,0.81 -0.56,1.67 -0.79,2.51l-10.31 52.39c-7.13,22.19 -8.06,80.89 -0.99,101.34 1.09,3.15 0.46,-2.96 2.54,7.36l78.31 165.89 100.67 77.53c0.67,0.34 1.52,0.76 2.2,1.1l52.89 23c0.83,0.25 1.65,0.56 2.51,0.79l28.96 7.34c6.84,1.34 11.44,0.18 18.25,1.55l17.43 5.67c17.23,2.52 57.83,3.07 75.76,-3.13l136.52 -48.28c10.35,-5.23 15.28,-13.09 24.16,-18.74 4.35,-2.76 2.62,-1.17 6.48,-3.42 5.02,-2.93 1.23,-0.09 6.06,-3.84 16.46,-12.78 40.97,-37.34 52.29,-56.61 9.46,-16.11 12.98,-12.75 27.48,-41.83l4.4 -8.8c0.34,-0.67 0.76,-1.53 1.1,-2.2l21.13 -48.18c0.27,-0.79 0.61,-1.63 0.88,-2.42l4.92 -14.88c5.09,-14.42 2.69,-22.54 5.66,-37.24 3.86,-19.04 2.35,5.98 5.76,-17.35l0 -72.28c-2.26,-15.48 -4.96,-9.72 -6.44,-26.56l-21.23 -71.17c-0.27,-0.79 -0.57,-1.67 -0.86,-2.44l-3.08 -6.82c-1.18,-2.44 -2.72,-5.2 -3.38,-6.53l-3.22 -6.67c-2.3,-4.43 -1.13,-2.7 -3.52,-6.38l-7.21 -9.29c-0.4,-0.58 -0.93,-1.39 -1.31,-1.98 -0.39,-0.6 -0.84,-1.47 -1.22,-2.08 -2.23,-3.65 -0.93,-2.29 -3.55,-6.35l-77.07 -84.62c-0.58,-0.41 -1.43,-0.89 -2.03,-1.27l-78.76 -43.34c-7.26,-2.47 -0.96,0.02 -7.04,-2.85 -0.06,-0.03 -4.9,-2.77 -6.38,-3.52l-4.35 -2.25c-16.47,-6.77 -41.77,-7.08 -57.25,-12.05l-7.01 -2.89c-16.53,-4.65 -37.3,-1.33 -54.72,-1.39 -6.54,-0.02 -13.62,-0.33 -20.04,-0.24l-19.56 3.55z"/>
  </g>
 </g>
</svg>
