<?xml version="1.0" encoding="utf-8"?>
<!-- Generator: Adobe Illustrator 24.1.0, SVG Export Plug-In . SVG Version: 6.00 Build 0)  -->
<svg version="1.1" xmlns="http://www.w3.org/2000/svg" xmlns:xlink="http://www.w3.org/1999/xlink" x="0px" y="0px"
	 viewBox="0 0 42.52 42.52" style="enable-background:new 0 0 42.52 42.52;" xml:space="preserve">
<style type="text/css">
	.st0{display:none;}
	.st1{fill:#1CABDD;}
	.st2{fill:#FFFFFF;}
</style>
<g id="Layer_1" class="st0">
</g>
<g id="Layer_2">
	<g id="Twitter">
		
			<ellipse transform="matrix(0.1493 -0.9888 0.9888 0.1493 -2.9352 39.1081)" class="st1" cx="21.26" cy="21.26" rx="21.26" ry="21.26"/>
		<path class="st2" d="M10.31,28.19c0,0,6.57,4.67,14.17-0.25c0,0,5.64-3.27,5.42-11.1c0,0,1.75-1.26,2.32-2.38
			c0,0-1.57,0.7-2.58,0.64c0,0,1.11-0.27,1.98-2.38c0,0-2.25,1.09-2.88,1.06c0,0-2.44-2.78-5.76-0.69c0,0-2.87,1.99-1.93,4.8
			c0,0-5.31,0.09-9.26-4.71c0,0-2.05,3.41,1.31,5.98c0,0-0.78,0.09-1.96-0.53c0,0-0.06,3.62,3.53,4.44c0,0-0.66,0.35-1.87,0.11
			c0,0,0.33,2.88,4.09,3.12C16.87,26.3,14.68,28.46,10.31,28.19z"/>
	</g>
	<g>
	</g>
	<g>
	</g>
	<g>
	</g>
	<g>
	</g>
	<g>
	</g>
	<g>
	</g>
</g>
</svg>
